<svg xmlns="http://www.w3.org/2000/svg" xmlns:xlink="http://www.w3.org/1999/xlink" viewBox="0 0 438.9 402.1"><defs><style>.cls-1,.cls-11{fill:none;}.cls-2{fill:#adb6da;}.cls-17,.cls-3{fill:#f5bd94;}.cls-4{fill:#f7bd94;}.cls-5{fill:#4f1d11;}.cls-6{fill:#fac9aa;}.cls-7{fill:#31353f;}.cls-8{fill:#16181c;}.cls-9{fill:#f0f0f0;}.cls-10{fill:#9d9d9c;}.cls-11{stroke:#fff;stroke-linecap:round;stroke-linejoin:round;stroke-width:0.84px;}.cls-12{fill:#262d4f;}.cls-13{fill:#e74645;}.cls-14{fill:#3c678c;}.cls-15{fill:#dadada;}.cls-16{fill:#592e46;}.cls-17{opacity:0.5;isolation:isolate;}.cls-18{fill:#514180;}.cls-19{fill:#634e9b;}.cls-20{fill:#6755a0;}.cls-21{fill:#593463;}.cls-22{fill:#6a3f77;}.cls-23{fill:#683e75;}.cls-24{clip-path:url(#clip-path);}.cls-25{fill:#7d4b8d;}.cls-26{fill:#6b4079;}.cls-27{fill:#397b89;}.cls-28{clip-path:url(#clip-path-2);}.cls-29{fill:#4491a2;}.cls-30{clip-path:url(#clip-path-3);}.cls-31{clip-path:url(#clip-path-4);}.cls-32{clip-path:url(#clip-path-5);}.cls-33{fill:#3b7f8d;}.cls-34{clip-path:url(#clip-path-6);}.cls-35{clip-path:url(#clip-path-7);}.cls-36{clip-path:url(#clip-path-8);}.cls-37{fill:#52afc4;}.cls-38{clip-path:url(#clip-path-9);}.cls-39{fill:#6f3d39;}.cls-40{fill:#5a2b2a;}.cls-41{fill:#1f2f4e;}.cls-42{fill:#d4dd64;}.cls-43{fill:#5f554c;}.cls-44{fill:#86a3c8;}.cls-45{fill:#fff;}.cls-46{fill:#e29d82;}</style><clipPath id="clip-path"><path class="cls-1" d="M294.6,154.1l-23.5-14.6c-.8-.5-1.5-1-2.2-1.5l23.5,14.6A10.71,10.71,0,0,0,294.6,154.1Z"/></clipPath><clipPath id="clip-path-2"><path class="cls-1" d="M95.9,180.6l35.9,22.2c4.1,2.6,6.4,8.7,7.3,18.6l-35.9-22.2C102.3,189.3,100.1,183.2,95.9,180.6Z"/></clipPath><clipPath id="clip-path-3"><path class="cls-1" d="M110.5,207,74.7,184.8a75.66,75.66,0,0,1-10-9.6l35.8,22.2A82.66,82.66,0,0,0,110.5,207Z"/></clipPath><clipPath id="clip-path-4"><path class="cls-1" d="M194.1,22.2,158.2,0a82.5,82.5,0,0,1,13.9,2.4L208,24.6A84.27,84.27,0,0,0,194.1,22.2Z"/></clipPath><clipPath id="clip-path-5"><path class="cls-1" d="M62.9,148.7l35.9,22.2c6.8,4.2,7.1,12.6,1.7,26.4L64.6,175.1C70.1,161.3,69.7,152.9,62.9,148.7Z"/></clipPath><clipPath id="clip-path-6"><path class="cls-1" d="M84,167.6,48.1,145.4c-.8-2.5-1.5-5-2.1-7.6a71,71,0,0,1-1.4-7.8l35.9,22.2c.4,2.6.8,5.2,1.4,7.8S83.2,165.1,84,167.6Z"/></clipPath><clipPath id="clip-path-7"><path class="cls-1" d="M81.6,115.2,45.7,93A117.19,117.19,0,0,1,50,77.6L85.9,99.7A123.12,123.12,0,0,0,81.6,115.2Z"/></clipPath><clipPath id="clip-path-8"><path class="cls-1" d="M103.6,66.8,67.7,44.6A121.88,121.88,0,0,1,78.2,32.3l35.9,22.2A121.88,121.88,0,0,0,103.6,66.8Z"/></clipPath><clipPath id="clip-path-9"><path class="cls-1" d="M144.5,32.3,108.6,10.1c2.4-1.2,4.9-2.3,7.4-3.3s5.1-1.9,7.6-2.7l35.9,22.1c-2.5.8-5,1.7-7.6,2.7S146.9,31.1,144.5,32.3Z"/></clipPath></defs><g id="Capa_2" data-name="Capa 2"><g id="Capa_1-2" data-name="Capa 1"><g id="Capa_2-2" data-name="Capa 2"><g id="Capa_1-2-2" data-name="Capa 1-2"><path class="cls-2" d="M438.9,327.4c0,11.4-25.5,20.6-57,20.6s-57-9.2-57-20.6,25.5-20.6,57-20.6S438.9,316,438.9,327.4Z"/><path class="cls-3" d="M376.7,162.5l-9.2,26.7s1.4,4.6-3.4,8.8l-18.9,21.3-3.9-2.8,16.1-26.7,7.4-30.4s1-9.3,8-7.2C372.8,152.2,379.6,153.5,376.7,162.5Z"/><path class="cls-4" d="M339.2,223.1c-.6-.2-1.6,1.4-3.5.4a20.29,20.29,0,0,1,2.1-3.5c.6-.6,1-.5,1.9-.4a15.52,15.52,0,0,0,2.1.4c.7,0,2.1-1.4,2.8-1.8l.8.5a46,46,0,0,1-2.9,5.9Z"/><path class="cls-4" d="M334.9,220.5c.9-1.1,2-2.1,3-3.1l2.8-1,1.5-1.2c1.2,1.6,2.4,2.9,2.4,2.9a16.32,16.32,0,0,0-2.2,2.3s-1,.9-3.5,0l-1.2-.3C337.8,220.2,336.1,221.9,334.9,220.5Z"/><path class="cls-4" d="M343,223.9a.52.52,0,0,0-.1-.8.31.31,0,0,0-.2-.1.75.75,0,0,0-.9,0l-.1.1.2-.3c0-.4-.6-.6-.6-.6a.81.81,0,0,0-1,.3v.1l.3-.6c.1-.4-.6-.6-.6-.6a.74.74,0,0,0-1.1.3l-.1.2s-1.2-1.4-2.5.7l-.6.9s.5.9,1.9.4a1.32,1.32,0,0,0,1.7.6,1.44,1.44,0,0,0,1.5.4s.8.8,1.3.3Z"/><path class="cls-5" d="M372.6,108.3,370.4,135s.1,5.3-6.5,7.8c0,0,22.7,4.2,24.4-7.2C388.3,135.6,388.2,109.3,372.6,108.3Z"/><path class="cls-6" d="M370.4,317.8l.5,4.2-14.8,5.2s-2.6.9-1,2.1c0,0,3.2,2.2,7.9,0l10.1-4.6,2.4-.9-.1-6.2Z"/><path class="cls-7" d="M375.7,323.8l-2.6,1.1-9.9,4.3c-4.7,2.1-7.9-.1-7.9-.1-1.7-1.2.8-2.2.8-2.2l3.6-1.5,9.9-4.3-.2-1.9a.82.82,0,0,1,.8-.9h.1l2.9.2s1.1.3.8,1.2l-.4,1.1,2.2-1-.1,4"/><path class="cls-8" d="M362.3,326.6l10.8-4.8.2-1,.4-1.1c.3-.9-.8-1.2-.8-1.2l-2.9-.2a.9.9,0,0,0-.9.9v.1l.2,1.9-9.9,4.3-2,.8C357.5,326.3,359,328.2,362.3,326.6Z"/><path class="cls-9" d="M354.6,328.3a2.12,2.12,0,0,0,.4,1.9,8,8,0,0,0,7.9.4l12.8-5.6-.1-1.3-13.9,5.6C361.8,329.3,357.3,330.9,354.6,328.3Z"/><path class="cls-10" d="M362,327.3a.47.47,0,0,1-.5.5h0a.47.47,0,0,1-.5-.5.51.51,0,1,1,1,0Z"/><path class="cls-10" d="M364.3,326.3a.5.5,0,1,1-.5-.5c.2,0,.4.2.5.5Z"/><path class="cls-10" d="M366.1,325.4a.47.47,0,0,1-.5.5h0a.47.47,0,0,1-.5-.5h0a.44.44,0,0,1,.4-.6c.3,0,.6.1.6.4v.2Z"/><path class="cls-10" d="M368.1,324.5a.47.47,0,0,1-.5.5h0a.44.44,0,0,1-.4-.6.43.43,0,0,1,.4-.4A1.21,1.21,0,0,1,368.1,324.5Z"/><path class="cls-10" d="M370.3,323.6a.47.47,0,0,1-.5.5h0a.47.47,0,0,1-.5-.5h0a.47.47,0,0,1,.5-.5.54.54,0,0,1,.5.5Z"/><path class="cls-10" d="M372.1,322.7a.47.47,0,0,1-.5.5h0a.47.47,0,0,1-.5-.5h0a.47.47,0,0,1,.5-.5.54.54,0,0,1,.5.5Z"/><path class="cls-11" d="M361.3,324.6a3.29,3.29,0,0,1,2.5,1.6"/><path class="cls-11" d="M363.2,323.8a3.29,3.29,0,0,1,2.5,1.6"/><path class="cls-11" d="M365,322.8a3.29,3.29,0,0,1,2.5,1.6"/><path class="cls-11" d="M367.3,321.9a3.29,3.29,0,0,1,2.5,1.6"/><path class="cls-11" d="M369,321.1a3.29,3.29,0,0,1,2.5,1.6"/><path class="cls-11" d="M359.1,325.6a3.29,3.29,0,0,1,2.5,1.6"/><path class="cls-12" d="M376.3,319.3a10.3,10.3,0,0,1-7.9.2l-3-62.2-.5-49.3,23.4-2.4c-2.4,12.2-4.4,23.9-6.1,36.3-.9,6.4-2.8,14-3.2,20.9a172.41,172.41,0,0,1-.8,38l-1.5,18.5"/><path class="cls-6" d="M392,319.7l.5,4.2-14.8,5.2s-2.6.9-1,2.1c0,0,3.2,2.2,7.9,0l10.1-4.5,2.4-.9-.1-6.2Z"/><path class="cls-13" d="M397.3,325.7l-2.6,1.2-9.9,4.3c-4.7,2.2-7.9,0-7.9,0-1.7-1.2.8-2.2.8-2.2l3.6-1.5,9.9-4.3-.2-1.9s-.1-.8.9-1l2.9.2s1.1.3.8,1.2l-.4,1.1,2.2-1-.1,3.9"/><path class="cls-10" d="M384,328.5l10.8-4.8.2-1,.4-1.1c.3-.9-.8-1.2-.8-1.2l-2.9-.2a.91.91,0,0,0-.9,1l.2,1.9-9.9,4.3-2,.8C379.2,328.2,380.6,330.1,384,328.5Z"/><path class="cls-9" d="M376.3,330.2a2.39,2.39,0,0,0,.4,2,8,8,0,0,0,7.9.4l12.8-5.6-.1-1.3-13.9,5.6C383.4,331.2,379,332.9,376.3,330.2Z"/><path class="cls-10" d="M383.7,329.2a.47.47,0,0,1-.5.5h0a.55.55,0,0,1-.1-1.1c.3.1.6.3.6.6Z"/><path class="cls-10" d="M385.9,328.3a.51.51,0,1,1-1,.2v-.2a.47.47,0,0,1,.5-.5h0A.47.47,0,0,1,385.9,328.3Z"/><path class="cls-10" d="M387.8,327.4a.47.47,0,0,1-.5.5h0a.47.47,0,0,1-.5-.5h0a.47.47,0,0,1,.5-.5h0A.54.54,0,0,1,387.8,327.4Z"/><path class="cls-10" d="M389.7,326.4a.5.5,0,1,1-.5-.5.64.64,0,0,1,.5.5Z"/><path class="cls-10" d="M392,325.5a.5.5,0,1,1-.5-.5c.2,0,.4.2.5.5Z"/><path class="cls-10" d="M393.8,324.6a.5.5,0,1,1-.5-.5c.2,0,.4.2.5.5Z"/><path class="cls-11" d="M382.9,326.5a3.29,3.29,0,0,1,2.5,1.6"/><path class="cls-11" d="M384.8,325.7a3.29,3.29,0,0,1,2.5,1.6"/><path class="cls-11" d="M386.6,324.7a3.29,3.29,0,0,1,2.5,1.6"/><path class="cls-11" d="M389,323.9a3.29,3.29,0,0,1,2.5,1.6"/><path class="cls-11" d="M390.7,323a3.29,3.29,0,0,1,2.5,1.6"/><path class="cls-11" d="M380.7,327.6a3.29,3.29,0,0,1,2.5,1.6"/><path class="cls-6" d="M370.4,317.8l.5,4.2-14.8,5.2s-2.6.9-1,2.1c0,0,3.2,2.2,7.9,0l10.1-4.6,2.4-.9-.1-6.2Z"/><path class="cls-13" d="M375.7,323.8l-2.6,1.1-9.9,4.3c-4.7,2.1-7.9-.1-7.9-.1-1.7-1.2.8-2.2.8-2.2l3.6-1.5,9.9-4.3-.2-1.9a.82.82,0,0,1,.8-.9h.1l2.9.2s1.1.3.8,1.2l-.4,1.1,2.2-1-.1,4"/><path class="cls-10" d="M362.3,326.6l10.8-4.8.2-1,.4-1.1c.3-.9-.8-1.2-.8-1.2l-2.9-.2a.9.9,0,0,0-.9.9v.1l.2,1.9-9.9,4.3-2,.8C357.5,326.3,359,328.2,362.3,326.6Z"/><path class="cls-9" d="M354.6,328.3a2.12,2.12,0,0,0,.4,1.9,8,8,0,0,0,7.9.4l12.8-5.6-.1-1.3-13.9,5.6C361.8,329.3,357.3,330.9,354.6,328.3Z"/><path class="cls-10" d="M362,327.3a.47.47,0,0,1-.5.5h0a.47.47,0,0,1-.5-.5.51.51,0,1,1,1,0Z"/><path class="cls-10" d="M364.3,326.3a.5.5,0,1,1-.5-.5c.2,0,.4.2.5.5Z"/><path class="cls-10" d="M366.1,325.4a.47.47,0,0,1-.5.5h0a.47.47,0,0,1-.5-.5h0a.44.44,0,0,1,.4-.6c.3,0,.6.1.6.4v.2Z"/><path class="cls-10" d="M368.1,324.5a.47.47,0,0,1-.5.5h0a.44.44,0,0,1-.4-.6.43.43,0,0,1,.4-.4A1.21,1.21,0,0,1,368.1,324.5Z"/><path class="cls-10" d="M370.3,323.6a.47.47,0,0,1-.5.5h0a.47.47,0,0,1-.5-.5h0a.47.47,0,0,1,.5-.5.54.54,0,0,1,.5.5Z"/><path class="cls-10" d="M372.1,322.7a.47.47,0,0,1-.5.5h0a.47.47,0,0,1-.5-.5h0a.47.47,0,0,1,.5-.5.54.54,0,0,1,.5.5Z"/><path class="cls-11" d="M361.3,324.6a3.29,3.29,0,0,1,2.5,1.6"/><path class="cls-11" d="M363.2,323.8a3.29,3.29,0,0,1,2.5,1.6"/><path class="cls-11" d="M365,322.8a3.29,3.29,0,0,1,2.5,1.6"/><path class="cls-11" d="M367.3,321.9a3.29,3.29,0,0,1,2.5,1.6"/><path class="cls-11" d="M369,321.1a3.29,3.29,0,0,1,2.5,1.6"/><path class="cls-11" d="M359.1,325.6a3.29,3.29,0,0,1,2.5,1.6"/><path class="cls-14" d="M368.3,315.5s-.4,0-.4.5l.2,2.8s-.1.6.3.7c0,0,3.1,1.9,8.2-.3a.79.79,0,0,0,.5-.8v-2.6s.2-.8-.5-.7A13.84,13.84,0,0,1,368.3,315.5Z"/><path class="cls-15" d="M378.9,237.7c-1.3-9.2-.6-5.9-1.6-11.7-2-12.2-7.2-7.4-12.2-17.4l23-2.1-6.5,39.3A19.45,19.45,0,0,1,378.9,237.7Z"/><path class="cls-14" d="M368.3,315.5s-.4,0-.4.5l.2,2.8s-.1.6.3.7c0,0,3.1,1.9,8.2-.3a.79.79,0,0,0,.5-.8v-2.6s.2-.8-.5-.7A13.84,13.84,0,0,1,368.3,315.5Z"/><path class="cls-12" d="M397.8,323.2c.5-6.2,1-11,1.6-17.2,2.7-20.8-3.4-40.6-3.4-40.6l.2-8,6.3-37.8a34.89,34.89,0,0,0-2.4-21.6l-22.6.5,4.3,56.5.7,7.7,7.1,60.8a10.31,10.31,0,0,0,7.9-.2"/><path class="cls-14" d="M389.5,319.5s-.4,0-.4.5l.2,2.8s-.1.6.3.7c0,0,3.1,1.9,8.2-.3a.69.69,0,0,0,.5-.8v-2.6s.2-.8-.5-.7A13.07,13.07,0,0,1,389.5,319.5Z"/><path class="cls-3" d="M381.9,142.1a31.84,31.84,0,0,0-5.4-2.1,11.33,11.33,0,0,0-3.6-.6c-2.8,0-3.7,3-4.2,5.2-.3,1.3-.4,2.7-.6,4-.2,1.5-1.4,2.9-1.5,4.3,0,0-4.8,8.6-1.3,14.5l4.5,5.8L366,205c19.9,8,36,3.2,36,3.2,2.1-7.4-4.5-23.9-2.9-19,.7,2.1-1.7-4.6-1.4-7.6.6-5.3,5.1-15.1,5.5-20.5.3-4.2,1.2-6.2-1.2-8.1a58.56,58.56,0,0,0-10.2-6.1Z"/><path class="cls-16" d="M372.9,139.4s-4.8-.6-7.2,9.1l-4.6,18s-.2,4.5,10.7,5.4C371.8,171.9,380.2,142.2,372.9,139.4Z"/><rect class="cls-3" x="381.9" y="132.1" width="10" height="20.2"/><path class="cls-17" d="M381.9,142.8V132.1h10v6.1S390.1,139.4,381.9,142.8Z"/><path class="cls-3" d="M396.7,133.6c7.2-5,10.3-25.3-3.2-30.5-9.8-3.7-20.9,4.1-18.7,14.8.5,2.4-.8,4.6-1,7-.4,3.7.3,7.2,2.5,12.2,1.6,3.9,7.9,1.4,11.2.6A25.29,25.29,0,0,0,396.7,133.6Z"/><path class="cls-16" d="M402.1,153c2.5,1.9,1.6,3.9,1.2,8.1-.4,5.4-5,15.3-5.5,20.5-.3,3,2.1,9.7,1.4,7.6-1.7-4.8,7.5,15.9,5.4,23.3,0,0-26.7,9.2-39.6-4.6l4.3-34.4-4-6.1c-3.5-5.9,1.3-14.5,1.3-14.5.2-1.4,1.3-2.8,1.5-4.3.2-1.3.4-2.7.6-4,.5-2.3,1.4-5.3,4.2-5.2a11.33,11.33,0,0,1,3.6.6,29.21,29.21,0,0,1,4.9,1.9s-2.6,4.1,2.4,6.5c0,0,5.5,3.2,8.7-1.2C392.5,147.2,399.9,150.7,402.1,153Z"/><path class="cls-5" d="M394.5,123.6a3.45,3.45,0,0,1-1.2-1.2c-2.6-4.6-3.2-11.4-3.2-11.4l8.2-5.7s11.8,8,3.3,23l-3.9,5.1a10.18,10.18,0,0,1-3.1,1.6c-1-6.4-.3-2.9.4-8.2C395,126.8,395.7,124.8,394.5,123.6Z"/><path class="cls-5" d="M374.1,122.4s-2.4-10.4-1.1-14.9c3.7-8.6,14.7-7.8,14.7-7.8,9.3.6,10.6,5.6,10.6,5.6l-8.2,5.7c-.7-2.4-3.6-3.2-5.7-3.5-5.6-.9-4.7,3.6-9.6,7.6l.2,4.4C374.7,120.4,374.5,121.4,374.1,122.4Z"/><path class="cls-15" d="M369.3,173.6l-4-6.1c-3.5-5.9,1.3-14.5,1.3-14.5.2-1.4,1.3-2.8,1.6-4.3.2-1.3.4-2.6.6-4a13.09,13.09,0,0,1,.9-2.8,23.74,23.74,0,0,1-.9,9.9c-1,3.2-2.4,6.6-2.3,10,.1,2.4.5,5.2,3,6.4,2.7,1.2,5.7,1.8,8.4,2.8,5.5,2,13.1,4.7,18.5,1,3.9-2.6,5.5-7.1,7-11.4v.6c-.4,5.4-5,15.2-5.5,20.5-.3,2.4,1.1,6.9,1.5,7.8,0-.1,0-.1-.1-.2-1.7-4.8,7.5,15.8,5.4,23.3,0,0-26.7,9.2-39.6-4.6Z"/><path class="cls-5" d="M390.1,110.2l-2.2,26.7s.5,6.6-7.5,11.1c0,0,23.7.9,25.4-10.6,0,0,2.1-15.1-2.9-26.8C401.3,106.9,394.7,110.5,390.1,110.2Z"/><path class="cls-18" d="M232.7,295.5l-42.5-26.3c7.6,4.7,10,13.3,8.1,27.4l42.5,26.3C242.7,308.8,240.3,300.1,232.7,295.5Z"/><path class="cls-18" d="M317.1,172.3c.7-.5,1.5-1,2.2-1.6l.1-.1.3-.2c.6-.5,1.3-1,2-1.5l.6-.5c.8-.6,1.6-1.3,2.4-2L282.2,140l-2.4,2.1-.6.5c-.6.5-1.3,1.1-1.9,1.5l-.4.3c-.8.6-1.5,1.1-2.2,1.6a2.19,2.19,0,0,0-.5.3,17.39,17.39,0,0,1-1.8,1.1l-.5.3-1.2.6-.5.3c-.6.3-1.1.5-1.7.8a12.66,12.66,0,0,1-1.8.6l-1.2.3a4.25,4.25,0,0,1-1.1.2l-1.1.2-1,.1h-2.1c-.3,0-.8-.1-1.1-.1s-.7-.1-1-.1a1.88,1.88,0,0,1-.8-.2,8.11,8.11,0,0,0-1.1-.3,6.89,6.89,0,0,1-.8-.3c-.4-.2-.8-.3-1.2-.5l-.5-.2a16.18,16.18,0,0,1-1.8-1l42.5,26.3a16.18,16.18,0,0,0,1.8,1l.5.2.7.3.5.2.8.3c.4.1.8.2,1.1.3s.5.1.8.2l.4.1a1.7,1.7,0,0,1,.7.1,3.42,3.42,0,0,0,1.1.1h2.1c.3,0,.7-.1,1-.1a4.25,4.25,0,0,0,1.1-.2,3.59,3.59,0,0,1,1.1-.2,5.27,5.27,0,0,0,1.2-.3l.5-.1a6.94,6.94,0,0,0,1.3-.5c.4-.2,1.1-.5,1.7-.8l.6-.3a10.91,10.91,0,0,0,1.1-.6l.2-.1.3-.2a17.39,17.39,0,0,0,1.8-1.1Z"/><path class="cls-18" d="M179.9,204.7c.1.1.1.3.2.4.4.8.7,1.6,1,2.3a.37.37,0,0,1,.1.3l.9,2.4c.1.2.1.3.2.5l.6,2.4a.37.37,0,0,0,.1.3c.1.7.2,1.5.3,2.2v.4a17.7,17.7,0,0,1,.1,2.3v.5a16.41,16.41,0,0,1-.2,2.3h0a15.54,15.54,0,0,1-.5,2.3c0,.2-.1.3-.1.5a14.27,14.27,0,0,1-.8,2.2l-.2.5c-.3.6-.6,1.3-.9,1.9l-.3.6c-.4.8-.8,1.5-1.3,2.3l-.3.4c-.4.6-.9,1.3-1.3,1.9-.2.3-.4.5-.6.8-.5.6-1,1.2-1.5,1.9l-.5.6c-.5.6-1.1,1.2-1.6,1.8l-.8.9-2.7,2.7,42.6,26.4a34.37,34.37,0,0,0,2.7-2.7,6.47,6.47,0,0,0,.8-.9c.5-.5,1-1.1,1.5-1.6l.1-.2c.2-.2.3-.4.5-.5.5-.6,1.1-1.3,1.5-1.9l.6-.8.5-.7a8.34,8.34,0,0,0,.8-1.2.52.52,0,0,0,.2-.4,18.58,18.58,0,0,0,1.1-1.9l.2-.4.3-.6c.3-.6.6-1.3.9-1.9.1-.2.1-.3.2-.5l.1-.2c.3-.7.5-1.4.7-2l.1-.5a20.48,20.48,0,0,0,.5-2.4h0a19.42,19.42,0,0,0,.2-2.4v-.5a17.7,17.7,0,0,0-.1-2.3v-.4c-.1-.7-.2-1.5-.3-2.2v-.3l-.6-2.4c-.1-.2-.1-.4-.2-.5a11.72,11.72,0,0,0-.9-2.4c0-.1-.1-.2-.1-.3a24,24,0,0,0-1.1-2.3l-.2-.5c-.4-.8-.9-1.7-1.4-2.5l-.3-.5c-.5-.9-1.1-1.8-1.7-2.7L176.5,199c.6.9,1.2,1.8,1.7,2.7l.3.5C179,203,179.4,203.8,179.9,204.7Z"/><path class="cls-18" d="M261,182.8c.2-.6.3-1.1.5-1.7.1-.3.2-.7.3-1,.2-.6.3-1.3.5-1.9.1-.3.1-.6.2-.9l.6-3-42.6-26.4-.6,3c-.1.3-.1.6-.2.9-.2.7-.3,1.3-.5,1.9-.1.4-.2.7-.3,1-.2.6-.3,1.1-.5,1.7-.1.3-.2.7-.3,1-.2.5-.4,1.1-.6,1.6l-.3.9c-.2.6-.5,1.1-.7,1.7l-.2.6a21.16,21.16,0,0,1-1.1,2.1l-.1.2-1.5,2.4a2.19,2.19,0,0,0-.3.5c-.5.6-.9,1.3-1.5,1.9l-.3.3c-.4.4-.8.9-1.2,1.3l-.5.5a12.67,12.67,0,0,1-1.3,1.1l-.4.4c-.7.5-1.4,1-2.1,1.4l-.5.3a21.48,21.48,0,0,1-2.6,1.4,18.29,18.29,0,0,1-2.5.8l-1.3.4a15.52,15.52,0,0,1-2.1.4,5.9,5.9,0,0,1-1.4.2l-2.6.3c-.4,0-.8.1-1.2.1-1.3.1-2.7.1-4.1.1l42.5,26.3c1.4,0,2.8,0,4.1-.1.4,0,.8-.1,1.2-.1a19,19,0,0,0,2.5-.3,6.75,6.75,0,0,1,1.4-.2c.7-.1,1.4-.3,2.1-.4a5,5,0,0,0,1.3-.4,6.15,6.15,0,0,1,1.1-.3c.3-.1.9-.3,1.4-.5.9-.4,1.7-.8,2.6-1.2l.3-.1.2-.1c.7-.4,1.4-.9,2.1-1.4l.1-.1.3-.3a12.67,12.67,0,0,0,1.3-1.1l.3-.2.2-.2a15.38,15.38,0,0,0,1.2-1.3c.1-.1.2-.2.2-.3s0-.1.1-.1c.5-.6,1-1.2,1.5-1.9l.1-.2c.1-.1.1-.2.2-.3.5-.8,1-1.5,1.5-2.4,0-.1.1-.1.1-.2v-.1c.4-.7.7-1.4,1.1-2.1.1-.2.1-.4.2-.5a13.36,13.36,0,0,0,.7-1.8.35.35,0,0,1,.1-.2c.1-.2.1-.4.2-.6.2-.5.4-1.1.6-1.6A10.41,10.41,0,0,0,261,182.8Z"/><path class="cls-18" d="M290.2,324.6l-42.5-26.3a39.58,39.58,0,0,1,9.3,8.5l42.6,26.3A42.12,42.12,0,0,0,290.2,324.6Z"/><path class="cls-18" d="M356.6,205.2a22.71,22.71,0,0,0,3,.6h.4l2.7.3.8.1c1,.1,2.1.1,3.3.2l-42.5-26.3c-1.1,0-2.2-.1-3.3-.2l-.8-.1-2.7-.3-.4-.1-3-.6-.6-.2a11.42,11.42,0,0,1-2.6-.9,5.36,5.36,0,0,1-1.1-.5c-.2-.1-.4-.1-.5-.2a10.93,10.93,0,0,1-1.5-.8h0l42.5,26.3h.1a10,10,0,0,0,1.4.8l.5.2a10.37,10.37,0,0,0,1,.4h.1c.9.3,1.7.6,2.6.9Z"/><path class="cls-18" d="M332.8,257.6a28.06,28.06,0,0,0,.8-3.1c0-.2.1-.4.1-.6l.6-3,.1-.4c.2-1.1.3-2.1.4-3.2l.1-.7c.1-1.1.1-2.1.2-3.2V243c0-1,0-2-.1-3v-.6c-.1-1.1-.2-2.1-.3-3.2,0-.2-.1-.5-.1-.7-.2-1.1-.4-2.2-.6-3.2-2.5-10.7-8.5-18.9-16.5-23.9l-42.6-26.3A37.25,37.25,0,0,1,291.4,206c.2,1.1.4,2.2.6,3.2,0,.2.1.4.1.7.1,1.1.3,2.1.3,3.2v.6c.1,1,.1,2,.1,3v.4c0,1.1-.1,2.1-.2,3.2l-.1.7c-.1,1.1-.2,2.1-.4,3.2a.76.76,0,0,1-.1.4l-.6,3c0,.2-.1.4-.1.6-.2,1-.5,2.1-.8,3.1a6.37,6.37,0,0,0-.2.7c-.3,1-.7,2-1,3l-.1.1c-.4,1-.8,2.1-1.3,3.1l-.3.6c-.5,1-1,2-1.5,2.9l-.4.6c-.4.6-.7,1.2-1.1,1.8l-.5.7c-.5.8-1,1.5-1.5,2.2l-.1.2c-.5.7-1,1.4-1.5,2l-.5.7a13.44,13.44,0,0,0-1.1,1.4c-.2.2-.4.5-.6.7-.4.4-.8.9-1.2,1.3l-.6.6c-.5.5-1,1-1.6,1.5l-.3.3c-.6.6-1.3,1.2-2,1.8l-.6.5-1.5,1.2-.7.5a24.26,24.26,0,0,1-2,1.4l-.4.3c-.8.5-1.6,1-2.5,1.5l-.7.4c-.6.3-1.2.7-1.9,1l-.8.4c-.9.4-1.7.8-2.6,1.1s-1.6.6-2.4.9l-.9.3c-.5.2-1,.3-1.6.5l-1,.3c-.5.1-1,.2-1.4.3l-1.1.2-1.4.2a4.1,4.1,0,0,1-1.1.1,5.85,5.85,0,0,0-1.3.2l-1.1.1-1.3.1h-3.1l-1.3-.1-1-.1-1.2-.2-1.1-.2-.9-.2-1.1-.2-.9-.2-1.1-.3-.9-.3c-.4-.1-.7-.3-1.1-.4l-.9-.3c-.2-.1-.5-.2-.7-.3-.6-.3-1.2-.5-1.8-.8l-.7-.3c-.8-.4-1.5-.8-2.3-1.3h0l42.5,26.3c.8.5,1.5.9,2.3,1.3l.7.3a14.17,14.17,0,0,0,1.8.8l.4.2.3.1.9.3,1.1.4.9.3,1.1.3.9.2,1.2.3.9.2c.2,0,.3.1.5.1l.6.1c.4.1.8.1,1.2.2l1,.1,1.3.1h3.5a5.7,5.7,0,0,0,1.3-.1l1-.1,1.4-.2c.4,0,.7-.1,1-.1a8.87,8.87,0,0,0,1.4-.3l1-.2a8.33,8.33,0,0,0,1.5-.4l.9-.2a12.09,12.09,0,0,1,1.8-.5l.6-.2h0c.8-.3,1.6-.6,2.5-.9s1.7-.7,2.6-1.1l.7-.4c.6-.3,1.2-.6,1.9-1l.5-.2h0l.2-.1c.8-.5,1.7-1,2.5-1.5l.4-.2,2.1-1.5.3-.2.3-.3,1.5-1.2a2.65,2.65,0,0,0,.6-.5c.7-.6,1.4-1.2,2-1.8h0l.3-.2,1.5-1.5.6-.6c.4-.4.8-.9,1.2-1.3a1.38,1.38,0,0,0,.3-.4c.1-.2.2-.2.3-.4.4-.5.8-.9,1.2-1.4l.5-.6c.5-.7,1.1-1.4,1.6-2.1h0c.5-.8,1-1.5,1.5-2.3.1-.2.3-.5.4-.7.4-.6.7-1.2,1.1-1.9l.2-.4c0-.1.1-.1.1-.2.5-1,1-1.9,1.5-2.9l.3-.6c.5-1,.9-2.1,1.3-3.1h0v-.1c.4-1,.7-2,1-3Z"/><path class="cls-19" d="M366.7,206.5a90.61,90.61,0,0,1,3.5,11.2,80.76,80.76,0,0,1,1.7,10.8c-16.2,16.1-18.1,28.6-6.5,44.1a108.88,108.88,0,0,1-11,20.8,42.92,42.92,0,0,0-15.1,2.7c-10.1,4.1-15.5,12.9-18.2,28.2a81.33,81.33,0,0,1-10.7,5.2,74.37,74.37,0,0,1-11,3.6c-8.8-10.6-17.1-13.8-27.1-9.8a51.74,51.74,0,0,0-13.4,8.8,66.65,66.65,0,0,1-18.2-9.3c2.8-21.1-4.1-30.1-23.7-31.6a77.89,77.89,0,0,1-3.2-10.4,82.82,82.82,0,0,1-1.8-12c15.9-15,17.9-27.4,6.9-43.5a104.37,104.37,0,0,1,11.2-20.8,38.62,38.62,0,0,0,15.1-2.4c9.6-3.9,14.9-12.7,17.7-27.9a103.23,103.23,0,0,1,10.6-5.1,106.9,106.9,0,0,1,10.9-3.6c8.5,10.7,16.6,14.1,26.2,10.2,4.2-1.7,8.8-4.8,13.8-9.4a69.63,69.63,0,0,1,17.9,8.9C339.8,197.1,346.7,205.9,366.7,206.5Zm-64.8,85.7c23.1-9.3,37.4-36.1,32-59.8s-28.6-35.4-51.7-26-37.4,36.1-32,59.8,28.6,35.4,51.7,26"/><path class="cls-20" d="M330.4,168.5c1.1.5,2.3,1,3.4,1.6.4.2.9.4,1.3.6,1.4.8,2.9,1.5,4.2,2.4h0L327,165.5l-30.2-18.7a36.23,36.23,0,0,0-4.3-2.4l-1.3-.6c-1.1-.6-2.3-1.1-3.4-1.6-.3-.1-.5-.3-.8-.4l-.4-.2c-1.5-.6-3-1.1-4.5-1.6l42.5,26.3c1.5.5,3,1,4.5,1.6C329.5,168.1,329.9,168.3,330.4,168.5Z"/><path class="cls-20" d="M212.1,268.8l-42.5-26.3a82.13,82.13,0,0,0,1.8,12.1,77.89,77.89,0,0,0,3.2,10.4l42.5,26.3a77.89,77.89,0,0,1-3.2-10.4A82.13,82.13,0,0,1,212.1,268.8Z"/><path class="cls-20" d="M280.5,166.7l1-.3c1-.3,2-.6,3-.8L242,139.3c-1,.3-2,.5-3,.8l-1,.3a17.23,17.23,0,0,0-2.1.7l-.5.2-.5.2c-1.3.4-2.6.9-3.8,1.4a103.23,103.23,0,0,0-10.6,5.1L263,174.3a103.23,103.23,0,0,1,10.6-5.1c1.3-.5,2.5-1,3.8-1.4l1-.3Z"/><path class="cls-20" d="M224.2,214.2c.6-1.1,1.2-2.2,1.9-3.3.3-.6.6-1.1.9-1.6,1-1.6,2-3.2,3.1-4.8l-42.5-26.3c-1.1,1.6-2.1,3.2-3.1,4.8a15.05,15.05,0,0,1-1,1.7c-.6,1-1.2,1.9-1.7,2.9-.1.1-.1.2-.2.4-.7,1.2-1.3,2.4-1.9,3.7l-.9,1.8c-.9,1.9-1.7,3.7-2.4,5.6l42.5,26.3c.8-1.9,1.6-3.8,2.5-5.6l.9-1.8Z"/><path class="cls-21" d="M287.9,137.5l-23.5-14.6c4.2,2.6,5.5,7.4,4.5,15.1l23.5,14.6C293.4,144.9,292.1,140.1,287.9,137.5Z"/><path class="cls-21" d="M334.5,69.4l1.2-.9h0c.1,0,.1-.1.2-.1a7.63,7.63,0,0,1,1.1-.8l.4-.3c.4-.4.9-.7,1.3-1.1L315.2,51.6a12.67,12.67,0,0,1-1.3,1.1l-.4.3a7.63,7.63,0,0,1-1.1.8c-.1,0-.1.1-.2.2l-1.2.9-.3.2c-.3.2-.7.4-1,.6l-.2.1-.7.4-.3.2a3,3,0,0,1-1,.4c-.4.1-.6.2-1,.3l-.6.2-.6.1c-.2,0-.4.1-.6.1l-.6.1h-1.2a1.27,1.27,0,0,1-.6-.1l-.6-.1-.5-.1-.6-.2-.5-.2-.7-.3-.3-.1a5.3,5.3,0,0,1-1-.6l23.5,14.6c.3.2.7.4,1,.6l.3.1.4.2.3.1a1.69,1.69,0,0,1,.5.2c.2.1.4.1.6.2l.5.1h.6l.6.1h1.2l.6-.1c.2,0,.4-.1.6-.1s.4-.1.6-.1l.6-.2.2-.1c.2-.1.5-.2.7-.3s.6-.3.9-.4l.3-.2.6-.3h.1l.2-.1a8.79,8.79,0,0,1,1-.6Z"/><path class="cls-21" d="M258.6,87.3a.35.35,0,0,0,.1.2c.2.4.4.9.6,1.3,0,.1,0,.1.1.2.2.4.3.9.5,1.3l.1.3c.1.4.2.9.3,1.3v.2c.1.4.1.8.2,1.2v1.8c0,.4-.1.9-.1,1.3h0c-.1.4-.2.9-.3,1.3a.37.37,0,0,1-.1.3c-.1.4-.3.8-.4,1.2l-.1.3a4.67,4.67,0,0,1-.5,1l-.2.3c-.2.4-.5.8-.7,1.3l-.1.2c-.2.4-.5.7-.7,1.1l-.3.4c-.3.3-.5.7-.8,1l-.3.3c-.3.3-.6.7-.9,1l-.5.5-1.5,1.5,23.6,14.6,1.5-1.5.5-.5a7.27,7.27,0,0,0,.8-.9l.1-.1.3-.3a7.63,7.63,0,0,0,.8-1.1l.3-.4.3-.4c.2-.2.3-.5.5-.7l.1-.2c.2-.4.4-.7.6-1.1,0-.1.1-.1.1-.2s.1-.2.2-.3c.2-.4.3-.7.5-1.1l.1-.3v-.1c.1-.4.3-.7.4-1.1a.37.37,0,0,1,.1-.3c.1-.4.2-.9.3-1.3h0a5.7,5.7,0,0,0,.1-1.3v-1.8a5,5,0,0,0-.2-1.2v-.2c-.1-.4-.2-.9-.3-1.3l-.1-.3a7.84,7.84,0,0,0-.5-1.4c-.3-.7,0-.1-.1-.2-.2-.4-.4-.8-.6-1.3,0-.1-.1-.2-.1-.3-.2-.4-.5-.9-.8-1.4l-.2-.3-.9-1.5L256.9,83.7l.9,1.5.2.3A6.3,6.3,0,0,0,258.6,87.3Z"/><path class="cls-21" d="M303.5,75.2l.3-.9a1.49,1.49,0,0,0,.1-.6,9.68,9.68,0,0,1,.3-1.1c0-.2.1-.3.1-.5.1-.6.2-1.1.3-1.7L281.1,55.8c-.1.6-.2,1.1-.3,1.7,0,.2-.1.3-.1.5-.1.4-.2.7-.3,1.1l-.1.6-.3.9-.2.6-.3.9-.2.5c-.1.3-.3.6-.4.9,0,.1-.1.2-.1.3l-.6,1.2-.1.1a14.8,14.8,0,0,1-.8,1.3l-.2.3a8.74,8.74,0,0,1-.8,1l-.2.2-.7.7-.3.3-.7.6-.2.2c-.4.3-.8.5-1.2.8l-.3.1a9.14,9.14,0,0,1-1.4.7c-.4.2-.9.3-1.4.5-.2.1-.5.1-.7.2a3.73,3.73,0,0,1-1.2.2l-.8.1c-.5.1-.9.1-1.4.2a1.7,1.7,0,0,0-.7.1,16.15,16.15,0,0,1-2.2,0l23.6,14.7a15.48,15.48,0,0,0,2.2-.1,1.7,1.7,0,0,0,.7-.1,5.9,5.9,0,0,0,1.4-.2c.3,0,.5-.1.8-.1a5,5,0,0,1,1.2-.2l.7-.2c.2-.1.4-.1.6-.2l.8-.3a6.11,6.11,0,0,0,1.4-.7l.2-.1.1-.1a8.34,8.34,0,0,0,1.2-.8h.1c.1,0,.1-.1.2-.2s.5-.4.7-.6l.2-.1.1-.1.7-.7.1-.1h0c.3-.3.5-.7.8-1l.1-.1a.35.35,0,0,0,.1-.2,9.13,9.13,0,0,0,.8-1.3.1.1,0,0,1,.1-.1h0l.6-1.2c0-.1.1-.2.1-.3a10.37,10.37,0,0,0,.4-1l.1-.1c0-.1.1-.2.1-.3l.3-.9A2,2,0,0,0,303.5,75.2Z"/><path class="cls-21" d="M319.7,153.6,296.2,139a20.85,20.85,0,0,1,5.1,4.7l23.5,14.6A22.83,22.83,0,0,0,319.7,153.6Z"/><path class="cls-22" d="M356.5,87.6l1.6.3h.2c.5.1,1,.1,1.5.2h.5c.6,0,1.2.1,1.8.1L338.5,73.7a10.87,10.87,0,0,1-1.8-.1h-.5a7.72,7.72,0,0,1-1.5-.2h-.2c-.6-.1-1.1-.2-1.6-.3l-.3-.1c-.5-.2-1-.3-1.5-.5l-.6-.3-.3-.1c-.3-.1-.5-.3-.8-.4h0l23.5,14.6h0a3,3,0,0,0,.8.4l.3.1.5.2h0c.5.2,1,.3,1.5.5Z"/><path class="cls-23" d="M343.2,116.6c.2-.6.3-1.1.5-1.7a.37.37,0,0,1,.1-.3c.1-.5.2-1.1.3-1.6v-.2a11,11,0,0,0,.2-1.8v-.4c0-.6.1-1.2.1-1.8v-2.2a11,11,0,0,0-.2-1.8v-.4l-.3-1.8a20.37,20.37,0,0,0-9.1-13.2L311.2,74.8A20.62,20.62,0,0,1,320.3,88l.3,1.8.1.4c.1.6.1,1.2.2,1.8v2.2a10.87,10.87,0,0,1-.1,1.8v.4a11,11,0,0,1-.2,1.8v.2c-.1.6-.2,1.1-.3,1.6a.37.37,0,0,1-.1.3,10.93,10.93,0,0,1-.5,1.7l-.1.4c-.2.6-.4,1.1-.6,1.7v.1c-.2.6-.5,1.1-.7,1.7l-.1.3c-.3.6-.5,1.1-.8,1.6l-.2.4c-.2.3-.4.7-.6,1a.76.76,0,0,0-.2.4c-.3.4-.5.8-.8,1.2h-.1a10.47,10.47,0,0,1-.8,1.1l-.3.4c-.2.3-.4.5-.6.8a1.87,1.87,0,0,1-.3.4c-.1.1-.4.5-.6.7a1,1,0,0,0-.3.4l-.9.9-.2.1c-.4.3-.7.7-1.1,1l-.3.3-.8.6-.4.3-1.1.8c-.1,0-.1.1-.2.1a10,10,0,0,1-1.4.8c-.1.1-.2.1-.4.2a4.67,4.67,0,0,1-1,.5l-.4.2c-.5.2-.9.4-1.4.6a7.84,7.84,0,0,1-1.4.5l-.5.1-.9.3-.6.1-.8.2-.6.1-.8.1-.6.1-.7.1h-3.2l-.7-.1-.6-.1c-.2,0-.5-.1-.7-.1l-.6-.1-.5-.1-.6-.1-.5-.1-.6-.2-.6.1-.6-.2-.5-.2-.4-.2a4.67,4.67,0,0,1-1-.5l-.4-.2a8.26,8.26,0,0,1-1.3-.7h0l23.5,14.6a5.39,5.39,0,0,0,1.3.7l.4.2,1,.5.2.1.2.1.5.2.6.2.5.1.6.2.5.1.6.1.5.1h.6c.2,0,.5.1.7.1s.4.1.6.1l.7.1h3l.8-.1.6-.1.8-.1.5-.1c.3-.1.6-.1.9-.2l.5-.1c.3-.1.7-.2,1-.3l.3-.1h0a7.84,7.84,0,0,0,1.4-.5c.5-.2,1-.4,1.4-.6l.4-.2,1-.5.2-.1h0l.1-.1a10,10,0,0,1,1.4-.8l.2-.1a10.47,10.47,0,0,0,1.1-.8l.2-.1.2-.1.9-.7.3-.3a10,10,0,0,0,1.1-1h0a.1.1,0,0,0,.1-.1l.9-.9a1.38,1.38,0,0,0,.3-.4,3.74,3.74,0,0,1,.6-.7l.2-.2.2-.2c.2-.3.4-.5.6-.8l.3-.4.9-1.2h0a5.67,5.67,0,0,0,.8-1.3.76.76,0,0,0,.2-.4c.2-.3.4-.7.6-1l.1-.2v-.1a11.94,11.94,0,0,0,.8-1.6l.1-.3a12.2,12.2,0,0,0,.7-1.7h0v-.1c.2-.6.4-1.1.6-1.7C343.2,116.8,343.2,116.7,343.2,116.6Z"/><g class="cls-24"><path class="cls-21" d="M294.6,154.1l-23.5-14.6c-.8-.5-1.5-1-2.2-1.5l23.5,14.6a17,17,0,0,0,2.2,1.5"/></g><path class="cls-25" d="M362,88.3a44.4,44.4,0,0,1,1.9,6.2c.4,2,.8,4,1,6-9,8.9-10,15.8-3.6,24.4a55.07,55.07,0,0,1-6.1,11.5,24,24,0,0,0-8.4,1.5c-5.6,2.2-8.6,7.2-10,15.6a64.47,64.47,0,0,1-5.9,2.9,43.5,43.5,0,0,1-6.1,2c-4.9-5.9-9.5-7.7-15-5.4a28,28,0,0,0-7.4,4.9,36.32,36.32,0,0,1-10-5.1c1.5-11.7-2.2-16.6-13.1-17.5a55.75,55.75,0,0,1-1.8-5.8,49.17,49.17,0,0,1-1-6.7c8.8-8.3,9.9-15.2,3.8-24.1a55.46,55.46,0,0,1,6.2-11.5,21.76,21.76,0,0,0,8.4-1.3c5.3-2.1,8.3-7,9.8-15.4a62.73,62.73,0,0,1,5.8-2.9,46.9,46.9,0,0,1,6-2c4.7,5.9,9.2,7.8,14.5,5.6a26.34,26.34,0,0,0,7.6-5.2,36.59,36.59,0,0,1,9.9,4.9C347.1,83.1,350.9,88,362,88.3Zm-35.8,47.4c12.8-5.1,20.7-20,17.7-33.1S328.1,83,315.3,88.2s-20.7,20-17.7,33.1,15.8,19.6,28.6,14.4"/><path class="cls-26" d="M341.9,67.2c.6.3,1.3.6,1.9.9l.7.3c.8.4,1.6.8,2.4,1.3h0l-6.8-4.2L323.4,55.2c-.8-.5-1.6-.9-2.4-1.3l-.7-.3c-.6-.3-1.2-.6-1.9-.9a.76.76,0,0,0-.4-.2l-.2-.1c-.8-.3-1.6-.6-2.5-.9l23.5,14.6c.8.3,1.7.6,2.5.9Z"/><path class="cls-26" d="M276.5,122.7,253,108.1a51.61,51.61,0,0,0,1,6.7,27,27,0,0,0,1.8,5.7l23.5,14.6a55.75,55.75,0,0,1-1.8-5.8A45.53,45.53,0,0,1,276.5,122.7Z"/><path class="cls-26" d="M314.3,66.2l.5-.2c.6-.2,1.1-.3,1.7-.5L293,50.9a10.93,10.93,0,0,0-1.7.5l-.5.2-1.2.4-.3.1-.2.1a18,18,0,0,0-2.1.8,63.63,63.63,0,0,0-5.9,2.8l23.5,14.6a39.91,39.91,0,0,1,5.9-2.8c.7-.3,1.4-.5,2.1-.8l.5-.2Z"/><path class="cls-26" d="M283.2,92.5c.3-.6.7-1.2,1-1.8l.5-.9c.6-.9,1.1-1.8,1.7-2.7L262.9,72.5c-.6.9-1.2,1.8-1.7,2.7a4.05,4.05,0,0,0-.5.9c-.3.5-.6,1.1-.9,1.6,0,.1-.1.1-.1.2a18.65,18.65,0,0,0-1,2,4.67,4.67,0,0,0-.5,1c-.5,1-.9,2.1-1.4,3.1l23.5,14.6a29.17,29.17,0,0,1,1.4-3.1c.2-.3.3-.7.5-1C282.5,93.9,282.8,93.2,283.2,92.5Z"/><path class="cls-27" d="M178.7,211.2,142.8,189a35.55,35.55,0,0,1,8.8,8.5l35.9,22.2A35.55,35.55,0,0,0,178.7,211.2Z"/><path class="cls-27" d="M252.4,76.9l.6.2,1.1.3.5.1c.5.1,1.1.2,1.7.3h.1l2.8.3.8.1a30.28,30.28,0,0,0,3.1.2L227.2,56.2a30.28,30.28,0,0,1-3.1-.2l-.7-.1q-1.5-.15-2.7-.3c-.6-.1-1.2-.2-1.9-.3l-.5-.1-1.1-.3-.6-.2-1-.3-.5-.2c-.3-.1-.7-.3-1-.4-.1-.1-.3-.1-.4-.2a8.26,8.26,0,0,1-1.3-.7l35.9,22.2h0a7.46,7.46,0,0,1,1.2.7c.1.1.3.1.4.2a4.88,4.88,0,0,0,.7.3l.2.1.5.2Z"/><g class="cls-28"><path class="cls-27" d="M139.1,221.4l-35.9-22.2c-.9-9.9-3.2-16-7.3-18.6l35.9,22.2c4.1,2.6,6.4,8.7,7.3,18.6"/></g><path class="cls-27" d="M222.4,133.3c.3-1.1.6-2.2.9-3.4l.2-.8c.3-1.2.5-2.4.7-3.6,0-.2.1-.4.1-.6.2-1.1.3-2.1.4-3.2l.1-.7c.1-1.2.2-2.4.2-3.6v-4.6c-.1-1.2-.1-2.4-.3-3.6,0-.3-.1-.6-.1-.9-.2-1.2-.3-2.5-.6-3.7-2.7-13.7-10.2-24.3-20.3-30.5L168,51.8c10.1,6.3,17.6,16.9,20.3,30.6.2,1.2.4,2.5.6,3.7,0,.3.1.6.1.8.1,1.2.2,2.4.3,3.7v4.6c-.1,1.2-.1,2.4-.2,3.6,0,.2-.1.5-.1.7-.1,1.1-.3,2.2-.4,3.3,0,.2-.1.4-.1.6-.2,1.2-.5,2.4-.7,3.6-.1.3-.1.5-.2.8-.3,1.1-.6,2.3-1,3.4l-.1.2c-.4,1.2-.8,2.4-1.2,3.5a6.89,6.89,0,0,0-.3.8l-1.5,3.6a1.69,1.69,0,0,0-.2.5,35.92,35.92,0,0,1-1.7,3.4l-.2.4c-.5,1-1.1,1.9-1.7,2.9a3,3,0,0,1-.5.7c-.5.7-.9,1.5-1.4,2.2l-.5.8a18.39,18.39,0,0,1-1.7,2.2l-.2.3c-.6.8-1.3,1.6-2,2.4l-.6.7c-.5.6-1,1.1-1.5,1.6l-.8.8-1.5,1.5-.7.7-2.4,2.1-.3.2c-.7.6-1.5,1.2-2.2,1.8a3,3,0,0,1-.7.5c-.8.6-1.6,1.1-2.4,1.6l-.6.4c-1,.6-1.9,1.2-2.9,1.8l-.8.4c-.7.4-1.5.8-2.3,1.2l-.9.4c-1,.5-2,.9-3.1,1.4-.6.2-1.2.5-1.8.7s-1.3.4-1.9.6l-1.7.5-1.2.3c-.6.1-1.1.3-1.7.4l-1.2.3-1.8.3-1.1.2a12.25,12.25,0,0,1-1.9.2l-.9.1c-.9.1-1.9.1-2.8.2h-2.8l-.9-.1c-.6,0-1.2-.1-1.9-.1-.4,0-.7-.1-1-.1l-1.7-.2-1.3-.2-1.1-.2-1.3-.3c-.4-.1-.8-.2-1.1-.3s-.8-.2-1.3-.4l-1.1-.3-1.2-.4-1.1-.4-.6-.2a25.57,25.57,0,0,1-2.4-1.1l-.8-.4-2.7-1.5h-.1L143.2,172h.1l2.7,1.5a5.94,5.94,0,0,0,.8.4c.8.4,1.5.7,2.3,1.1l.4.2.2.1a6.89,6.89,0,0,1,1,.4c.4.2.9.3,1.3.5a5.39,5.39,0,0,0,1,.3l1.3.4,1.1.3,1.3.3,1.1.2.9.2.4.1a9.85,9.85,0,0,0,1.7.2l1,.1a11.48,11.48,0,0,0,1.9.1l.9.1h2.8a26.35,26.35,0,0,0,2.8-.2l.9-.1c.6-.1,1.3-.1,1.9-.2l1.1-.2,1.8-.3,1.2-.3c.6-.1,1.1-.3,1.7-.4l1.2-.4,1.7-.5.7-.2,1.2-.4,1.8-.7c1-.4,2.1-.9,3.1-1.4l.9-.4c.8-.4,1.6-.8,2.3-1.2l.5-.3.2-.1,3-1.8.6-.4c.8-.5,1.6-1.1,2.4-1.7l.4-.3.3-.2c.8-.6,1.5-1.2,2.3-1.8l.2-.2,2.4-2.1.2-.2.5-.5,1.6-1.6.7-.8c.5-.5,1-1.1,1.5-1.6.1-.2.3-.3.4-.5s.1-.1.2-.2c.7-.8,1.4-1.6,2-2.4l.3-.4a17.68,17.68,0,0,0,1.6-2.2c.1-.1.1-.2.2-.3a2.19,2.19,0,0,0,.3-.5,16.44,16.44,0,0,0,1.4-2.2c.2-.2.3-.5.5-.7.6-1,1.1-1.9,1.7-2.9l.1-.1.1-.3c.6-1.1,1.2-2.3,1.7-3.4.1-.2.2-.3.2-.5.6-1.2,1.1-2.4,1.6-3.6.1-.1.1-.2.2-.4a.76.76,0,0,0,.1-.4c.4-1.2.9-2.3,1.2-3.5A.31.31,0,0,1,222.4,133.3Z"/><path class="cls-27" d="M232.7,41l1.1-.6.7-.4,1.1-.6.8-.4h0L200.6,16.8l-1.8,1-.2.1-1.6.8-.2.1-1.6.7-.2.1a12.2,12.2,0,0,1-1.7.7c-.7.3-1.4.5-2.1.8a18.66,18.66,0,0,1-2.2.7l-.4.1c-.6.1-1.2.2-1.7.3l-.7.1c-.4,0-.9.1-1.3.1h-.7a3.75,3.75,0,0,1-1.1-.1,2.49,2.49,0,0,0-.8-.1l-.4-.1a6.47,6.47,0,0,1-1.3-.4c-.3-.2-.7-.3-1-.5-.1-.1-.2-.1-.3-.2h0l35.8,22.2c.1.1.3.1.4.2.3.2.6.3.9.5h0a5,5,0,0,0,1.3.4l.4.1.4.1h.4a4.1,4.1,0,0,0,1.1.1h.7a6.15,6.15,0,0,0,1.3-.1l.7-.1c.6-.1,1.1-.2,1.8-.3l.3-.1c.7-.2,1.5-.4,2.3-.7h.1c.6-.2,1.3-.5,1.9-.7s1.1-.5,1.7-.7c.4-.2.9-.4,1.3-.6Z"/><path class="cls-29" d="M110.5,207,74.7,184.8a75.66,75.66,0,0,1-10-9.6l35.8,22.2A82.66,82.66,0,0,0,110.5,207Z"/><g class="cls-30"><path class="cls-29" d="M110.5,207,74.7,184.8a75.66,75.66,0,0,1-10-9.6l35.8,22.2a82.66,82.66,0,0,0,10,9.6"/></g><path class="cls-29" d="M194.1,22.2,158.2,0a82.5,82.5,0,0,1,13.9,2.4L208,24.6A84.27,84.27,0,0,0,194.1,22.2Z"/><g class="cls-31"><path class="cls-29" d="M194.1,22.2,158.2,0c2.2.2,4.4.5,6.5.8L200.5,23c-2.1-.3-4.3-.6-6.4-.8"/><path class="cls-29" d="M200.5,23,164.7.8c2.5.4,5,1,7.4,1.6L208,24.6a66.87,66.87,0,0,0-7.5-1.6"/></g><g class="cls-32"><path class="cls-33" d="M100.5,197.3,64.6,175.1c.1-.1.1-.3.2-.4l35.9,22.2-.2.4"/><path class="cls-27" d="M100.7,196.9,64.8,174.7c5.2-13.6,4.9-21.9-1.9-26l35.9,22.2c6.7,4.2,7.1,12.4,1.9,26"/></g><path class="cls-29" d="M84,167.6,48.1,145.4c-.8-2.5-1.5-5-2.1-7.6a71,71,0,0,1-1.4-7.8l35.9,22.2c.4,2.6.8,5.2,1.4,7.8S83.2,165.1,84,167.6Z"/><g class="cls-34"><path class="cls-29" d="M84,167.6,48.1,145.4c-.8-2.5-1.5-5-2.1-7.6a71,71,0,0,1-1.4-7.8l35.9,22.2c.4,2.6.8,5.2,1.4,7.8s1.3,5.1,2.1,7.6"/></g><path class="cls-29" d="M81.6,115.2,45.7,93A117.19,117.19,0,0,1,50,77.6L85.9,99.7A123.12,123.12,0,0,0,81.6,115.2Z"/><g class="cls-35"><path class="cls-29" d="M81.6,115.2,45.7,93A117.19,117.19,0,0,1,50,77.6L85.9,99.7a123.12,123.12,0,0,0-4.3,15.5"/></g><path class="cls-27" d="M192,25.1l.3-.4,1.5-2.1c.1-.1.2-.2.2-.3L158.1.1c-.6.9-1.2,1.6-1.8,2.4L156,3c-.6.7-1.1,1.4-1.7,2.1l-.1.2c-.5.6-.9,1.1-1.4,1.6-.2.2-.4.5-.6.7l-1.1,1.1-.6.6a19.2,19.2,0,0,1-1.5,1.4l-.2.2L147.4,12l-.4.2-1.5.9-1.8.9c-.4.1-.7.3-1.1.4l-.7.2c-.2.1-.5.1-.7.2l-.7.1a1.7,1.7,0,0,0-.7.1h-1.4l-.7-.1-.7-.1a1.42,1.42,0,0,1-.6-.2c-.3-.1-.5-.1-.8-.2s-.4-.1-.6-.2a6.31,6.31,0,0,1-.9-.4c-.1-.1-.3-.1-.4-.2-.4-.2-.9-.5-1.3-.7l35.9,21.9a8.26,8.26,0,0,0,1.3.7c.1.1.3.1.4.2l.6.3.2.1.6.2a1.85,1.85,0,0,0,.7.2l.6.2.4.1h.3c.2,0,.5.1.7.1h1.4l1-.1.7-.1.7-.2a2.54,2.54,0,0,0,.7-.2l.4-.1.7-.3a15.11,15.11,0,0,0,1.8-.9h.1c.5-.3.9-.6,1.4-.9l.4-.2.5-.3a6.47,6.47,0,0,0,.9-.8l.2-.2c.4-.4.9-.7,1.3-1.1l.2-.2.6-.6,1.1-1.1c.2-.2.4-.5.6-.7l.5-.5a10.63,10.63,0,0,0,.9-1.1c0-.1.1-.1.1-.2C190.9,26.5,191.4,25.8,192,25.1Z"/><path class="cls-27" d="M92.9,131.3a4.1,4.1,0,0,0-.1-1.1V130c-.1-.4-.1-.8-.2-1.3l-.1-.4-.3-.9a.76.76,0,0,0-.2-.4,3.55,3.55,0,0,0-.4-.9c-.1-.1-.1-.2-.2-.4a7.46,7.46,0,0,0-.7-1.2l-.1-.2a3.59,3.59,0,0,0-.7-1c-.1-.1-.2-.3-.3-.4L89,122l-.3-.4a8.74,8.74,0,0,1-.8-1c-.1-.1-.2-.2-.2-.3l-1.2-1.2-.3-.3-1-.9-.5-.4-1-.9-.5-.4c-.5-.4-1-.8-1.6-1.2L45.7,92.8c.6.4,1.1.8,1.6,1.2l.5.4c.4.3.7.6,1.1.9l.5.4,1,.9.3.3,1.2,1.2.2.3a3.92,3.92,0,0,1,.8,1l.3.4a5.5,5.5,0,0,0,.7.9l.3.4c.2.4.5.7.7,1.1l.1.1a7.46,7.46,0,0,0,.7,1.2l.2.3c.1.3.3.6.4.9,0,.1.1.3.1.4l.3.9c0,.1.1.2.1.3a5.07,5.07,0,0,1,.2,1.3v.2c0,.4.1.7.1,1.1v1.7c0,.3-.1.7-.1,1v.3c-.1.4-.2.9-.3,1.3l-.1.4c-.1.3-.2.7-.3,1s-.1.3-.2.5a6.89,6.89,0,0,0-.3.8c-.1.3-.2.3-.2.5s-.3.6-.4.9l-.2.5c-.2.4-.5.9-.8,1.4h0c-.3.4-.6.9-.9,1.4a1.38,1.38,0,0,0-.3.4,17,17,0,0,0-1,1.4l-.3.4a21,21,0,0,1-1.4,1.7l-.1.2c-.7.8-1.5,1.7-2.3,2.5l-.1.1c-.8.9-1.8,1.8-2.7,2.7l35.8,22.2a34.37,34.37,0,0,0,2.7-2.7l.1-.1c.8-.9,1.6-1.7,2.3-2.5l.1-.1v-.1a21,21,0,0,0,1.4-1.7c.1-.1.2-.3.3-.4a11.32,11.32,0,0,0,1-1.3l.2-.2.1-.1c.3-.4.6-.9.9-1.3v-.1c.3-.4.5-.9.8-1.3l.1-.1.2-.3a3.55,3.55,0,0,0,.4-.9c.1-.3.2-.3.2-.5l.3-.8.1-.3c0-.1,0-.1.1-.2.1-.4.2-.7.3-1,0-.1.1-.2.1-.3.1-.4.2-.9.3-1.3v-.2a4.1,4.1,0,0,0,.1-1.1V132Z"/><path class="cls-27" d="M142.5,41.3c.2-.8.5-1.6.7-2.5l.1-.5a15.54,15.54,0,0,0,.5-2.3l.1-.8a26.8,26.8,0,0,0,.5-3L108.5,10.1c-.2,1-.3,2-.5,3a2.35,2.35,0,0,1-.2.8c-.2.8-.3,1.5-.5,2.3a.9.9,0,0,0-.1.5,18.24,18.24,0,0,1-.7,2.5c-.1.2-.1.4-.2.6l-.6,1.8a1.42,1.42,0,0,0-.2.6c-.2.5-.4.9-.6,1.3l-.2.5c-.3.6-.5,1.1-.8,1.7a.35.35,0,0,0-.1.2,17.39,17.39,0,0,1-1.1,1.8l-.3.4-.9,1.2c0,.1-.1.1-.1.2a5.73,5.73,0,0,1-1.1,1.1l-.3.3c-.3.2-.5.5-.8.7-.1.1-.3.2-.4.3l-1,.7-.4.2c-.5.3-1,.5-1.4.7a7.6,7.6,0,0,1-1.1.4,15.46,15.46,0,0,1-1.5.4l-.7.1a14.92,14.92,0,0,1-2.1.2H87.9a2.49,2.49,0,0,1-.8-.1c-.6-.1-1.3-.1-1.9-.2l-1-.2c-.7-.1-1.3-.3-2-.4l-.9-.2a21.16,21.16,0,0,1-3.1-.9l35.9,22.2c1.1.3,2.1.6,3.1.9l.9.2a14.16,14.16,0,0,0,2,.4l.5.1.4.1a13.66,13.66,0,0,0,1.9.2l.8.1a20.83,20.83,0,0,0,2.5,0h.2a14.92,14.92,0,0,0,2.1-.2l.7-.1a8.33,8.33,0,0,0,1.5-.4l.4-.1.7-.3a10.09,10.09,0,0,0,1.5-.7l.2-.1a.22.22,0,0,0,.2-.2,6.07,6.07,0,0,0,1-.7l.2-.2.1-.1a5.72,5.72,0,0,0,.8-.7l.3-.2.1-.1a11.41,11.41,0,0,0,1.1-1.1h0l.1-.1.9-1.2.1-.2a.31.31,0,0,0,.1-.2c.4-.6.7-1.1,1.1-1.8a.1.1,0,0,1,.1-.1h0a11.94,11.94,0,0,0,.8-1.6c.1-.2.1-.3.2-.5.2-.4.4-.9.6-1.3,0-.1.1-.1.1-.2l.1-.3.6-1.8A9.42,9.42,0,0,0,142.5,41.3Z"/><path class="cls-27" d="M106.3,84.5c.1-.4.1-.7.2-1.1a3.4,3.4,0,0,0,.1-1,4.87,4.87,0,0,1,.1-1.2,3.33,3.33,0,0,0,0-1,6.15,6.15,0,0,0-.1-1.3,4.1,4.1,0,0,1-.1-1.1,7.84,7.84,0,0,0-.2-1.4c-.1-.5-.1-.7-.2-1.1s-.2-1-.4-1.6c-.1-.4-.2-.7-.3-1.1l-.6-1.8c-.1-.3-.2-.7-.3-1-.3-1-.7-2-1.1-3L67.7,44.6c.4,1,.8,2,1.1,3l.3,1,.6,1.8c.1.4.2.7.3,1.1s.3,1.1.4,1.6.1.7.2,1.1a6.75,6.75,0,0,1,.2,1.4c0,.4.1.7.1,1.1s.1.9.1,1.3v2.2c0,.4-.1.6-.1,1a3.59,3.59,0,0,1-.2,1.1,2.92,2.92,0,0,0-.2.9,3.81,3.81,0,0,1-.3,1l-.3.9c-.1.3-.3.6-.4.9a2.66,2.66,0,0,1-.6,1c-.3.3-.2.4-.3.5a11.32,11.32,0,0,1-1,1.3c0,.1-.1.1-.1.2a15.93,15.93,0,0,1-1.3,1.3,5.72,5.72,0,0,0-.8.7c-.2.2-.6.5-.8.7l-.3.2c-.4.3-.9.6-1.4.9l-.5.3c-.4.3-.9.5-1.4.8l-.7.3c-.7.3-1.5.7-2.3,1a19.45,19.45,0,0,1-2.2.8l-.7.2-1.6.5-.7.2a21.72,21.72,0,0,0-2.4.7L86.2,99.7l2.4-.6.7-.2c.5-.2,1.1-.3,1.6-.5l.4-.1.3-.1c.8-.3,1.5-.5,2.2-.8s1.5-.7,2.3-1l.7-.3a10.91,10.91,0,0,0,1.1-.6c.1-.1.2-.1.3-.2l.5-.3c.5-.3,1-.6,1.4-.9l.3-.2.1-.1h0a4.35,4.35,0,0,0,.7-.6,5,5,0,0,0,.8-.7l.1-.1,1.2-1.2h0a.35.35,0,0,0,.1-.2,7.63,7.63,0,0,0,.8-1.1c.1-.1.1-.1.1-.2s.2-.3.3-.5l.4-.7c.1-.1.1-.2.2-.3a3.55,3.55,0,0,0,.4-.9c.1-.3.2-.3.2-.5s.1-.2.1-.3c.1-.3.2-.7.3-1A3.4,3.4,0,0,0,106.3,84.5Z"/><path class="cls-29" d="M103.6,66.8,67.7,44.6A121.88,121.88,0,0,1,78.2,32.3l35.9,22.2A121.88,121.88,0,0,0,103.6,66.8Z"/><g class="cls-36"><path class="cls-29" d="M103.6,66.8,67.7,44.6c1.8-2.4,3.8-4.8,5.7-7.1l35.9,22.2c-2,2.3-3.9,4.6-5.7,7.1"/><path class="cls-29" d="M109.3,59.7,73.4,37.5c1.5-1.8,3.1-3.5,4.8-5.2l35.9,22.2c-1.7,1.7-3.3,3.4-4.8,5.2"/></g><path class="cls-37" d="M266.5,93.8c-16.2,15.3-16.6,25.7-1.2,36.9a117.19,117.19,0,0,1-4.3,15.4,46.85,46.85,0,0,0-7.5,2.4c-13.5,5.5-16.3,14.6-10.1,30.7a121.88,121.88,0,0,1-10.5,12.3c-7.4-2.3-13.2-2.7-17.7-.9-6.7,2.7-10.6,10.2-12.7,23.1-2.4,1.2-4.9,2.3-7.4,3.4a76.75,76.75,0,0,1-7.6,2.7c-7.2-9.2-13.5-12.5-20.2-9.8-4.5,1.8-9.2,6.4-14.4,13.8a82.5,82.5,0,0,1-13.9-2.4c-1.6-17.9-7.8-23.4-21.3-18a54.87,54.87,0,0,0-7.3,3.6,75.66,75.66,0,0,1-10-9.6c8.1-20.7,3.4-29.1-16.5-29.8-.8-2.5-1.5-5-2.1-7.6a71,71,0,0,1-1.4-7.8c16.2-15.3,16.6-25.7,1.2-36.9a117.19,117.19,0,0,1,4.3-15.4,51.53,51.53,0,0,0,7.6-2.4C107,92,109.8,82.9,103.6,66.8a121.88,121.88,0,0,1,10.5-12.3c7.4,2.3,13.2,2.7,17.8.9,6.7-2.7,10.6-10.1,12.7-23,2.4-1.2,4.9-2.3,7.4-3.4a68.64,68.64,0,0,1,7.6-2.7c7.2,9.2,13.5,12.5,20.2,9.8,4.5-1.8,9.2-6.4,14.4-13.8a82.5,82.5,0,0,1,13.9,2.4c1.6,17.9,7.8,23.4,21.3,18a54.87,54.87,0,0,0,7.3-3.6,75.66,75.66,0,0,1,10,9.6c-8.1,20.7-3.4,29.1,16.5,29.8.8,2.5,1.5,5,2.1,7.6A68.35,68.35,0,0,1,266.5,93.8Zm-42.3,10.7c-5.6-28.9-32.8-44-60.7-33.8a13.36,13.36,0,0,0-1.8.7c-26.9,10.9-44.2,41.8-38.8,70.1,5.6,28.9,32.8,44,60.7,33.8l1.8-.7c26.9-10.9,44.2-41.9,38.8-70.1"/><path class="cls-29" d="M144.5,32.3,108.6,10.1c2.4-1.2,4.9-2.3,7.4-3.3s5.1-1.9,7.6-2.7l35.9,22.1c-2.5.8-5,1.7-7.6,2.7S146.9,31.1,144.5,32.3Z"/><g class="cls-38"><path class="cls-29" d="M144.5,32.3,108.6,10.1c2.4-1.2,4.9-2.3,7.4-3.3L120.8,5l35.9,22.2a46.81,46.81,0,0,0-4.8,1.8c-2.5,1-5,2.2-7.4,3.3"/><path class="cls-29" d="M156.7,27.2,120.8,5c.9-.3,1.9-.6,2.8-.9l35.9,22.1c-.9.3-1.9.6-2.8,1"/></g><path class="cls-2" d="M114.1,381.5c0,11.4-25.5,20.6-57.1,20.6S0,392.9,0,381.5s25.5-20.6,57-20.6S114.1,370.1,114.1,381.5Z"/><polygon class="cls-4" points="64.4 386.8 63.7 374.7 71.8 374.7 71.2 386.8 64.4 386.8"/><path class="cls-39" d="M63.5,389.9c4,1.7,8.3-.1,8.3-.1L86,384.1c3.1-2-.9-3.4-.9-3.4-2.4-1.1-6.2.2-6.2.2l-7.6,1.7c-2.6,2.7-7.2.9-7.2.9S63,385.6,63.5,389.9Z"/><path class="cls-9" d="M63.5,389.9a13.1,13.1,0,0,0,8.3-.1l13.9-5.6s2.1-1,.9-2.5c0,0,1.1.3.5,3.8-.3.5-1.7,1.2-4.2,2.4-4.3,2-8.8,4.2-13.6,5.1a11.36,11.36,0,0,1-4.1-.1c-.2-.1-1.8-.5-1.8-.9Z"/><path class="cls-40" d="M63.5,389.9l.7.2.7.2c.5.1,1,.1,1.5.2h1.5a15,15,0,0,0,2.9-.6,5,5,0,0,0,1.3-.5l2.7-1.2,2.7-1.2,2.8-1.2c1.8-.8,3.7-1.5,5.6-2.2h0a1.56,1.56,0,0,0,.8-.6.75.75,0,0,0,.1-.8,2.7,2.7,0,0,0-.7-.8l-.9-.6a4.87,4.87,0,0,1,1.1.4,2.54,2.54,0,0,1,1,.8,1.2,1.2,0,0,1,0,1.4,2.58,2.58,0,0,1-.9.9h0c-1.8.8-3.7,1.6-5.5,2.4-.9.4-1.8.8-2.8,1.2L75.3,389l-2.8,1.1a8.8,8.8,0,0,1-1.5.5l-1.5.3a11.3,11.3,0,0,1-3,0l-1.5-.3a1.85,1.85,0,0,0-.7-.2Z"/><polygon class="cls-4" points="35.5 380.2 34.8 368.1 42.9 368.1 42.3 380.2 35.5 380.2"/><path class="cls-39" d="M34.6,383.3c4,1.7,8.3-.1,8.3-.1l14.2-5.7c3.1-2-.9-3.4-.9-3.4-2.4-1.1-6.2.2-6.2.2L42.4,376c-2.5,2.7-7.2.9-7.2.9S34.1,379,34.6,383.3Z"/><path class="cls-9" d="M34.6,383.3a13.1,13.1,0,0,0,8.3-.1l13.9-5.6s2.1-1,.9-2.5c0,0,1.1.3.5,3.8-.3.5-1.7,1.2-4.2,2.4-4.3,2-8.8,4.2-13.6,5.1a9.49,9.49,0,0,1-4.1-.1c-.2-.1-1.8-.5-1.8-.9v-2.1Z"/><path class="cls-40" d="M34.6,383.3l.7.2.7.2a7.08,7.08,0,0,0,1.4.1h1.5a15,15,0,0,0,2.9-.6,7.84,7.84,0,0,0,1.4-.5l2.7-1.2,2.7-1.2c.9-.4,1.8-.8,2.8-1.2,1.8-.8,3.7-1.5,5.6-2.2h0a1.56,1.56,0,0,0,.8-.6.75.75,0,0,0,.1-.8,2.7,2.7,0,0,0-.7-.8l-.9-.6a4.87,4.87,0,0,1,1.1.4,2.54,2.54,0,0,1,1,.8,1.45,1.45,0,0,1,.2.7,1.85,1.85,0,0,1-.2.7,7.64,7.64,0,0,1-.9.9h0c-1.8.8-3.7,1.6-5.5,2.4-.9.4-1.8.8-2.8,1.2l-2.8,1.1-2.9,1.1a8.8,8.8,0,0,1-1.5.5l-1.5.3a7.57,7.57,0,0,1-1.5.1,7.57,7.57,0,0,1-1.5-.1l-1.5-.3c-.2-.1-.5-.1-.7-.2Z"/><path class="cls-41" d="M37.4,261.6c-.8,4.1.3,9.9,1.5,13.9,2.5,8.7,15.2,13.7,22.9,15.1,0,0,14.3.8,13.6-20.2Z"/><path class="cls-3" d="M61.7,218.7A194,194,0,0,1,77.6,188l3.8,2.1S77,216,69.8,225Z"/><path class="cls-3" d="M67.8,212.5s7.2,7.2,6.1,11.9c0,0-.7,2.6-2.8,2.5,0,0-2.9,1-12.7-7.5Z"/><path class="cls-42" d="M38.1,191.1a8.76,8.76,0,0,0,2.1,9.8l19.1,18.9s6.5.8,11.3-10.1L53.1,192.5C53.1,192.4,43.1,185.5,38.1,191.1Z"/><path class="cls-15" d="M58.6,219.1c3.1.1,5.3-1.5,7.5-3.9,1-1.1,2.2-2.9,1.8-4.4-.7-2.5-5.4-3.4-7.4-4.2-3.4-1.4-6.8-2.7-10.3-3.8-3.2-1.1-6.6-2-9.2-4.1a9.06,9.06,0,0,1-3.1-6.1c.1-.5.3-.9.4-1.3,5-5.6,15,1.4,15,1.4l17.5,17.2c-5,10.7-11.5,9.9-11.5,9.9Z"/><path class="cls-41" d="M75.2,276l.2,39-2,66.3s-4.1,4.1-11.6,1.8l-5.6-66.3L55,272.4Z"/><path class="cls-41" d="M55,276.1l-17.9-9.6.5,45L34.5,377c4.2,3.5,10.2-.3,10.2-.3l9.6-60.6Z"/><polygon class="cls-3" points="67.2 187.9 64.1 202 54.2 196.7 56.5 184.8 67.2 187.9"/><path class="cls-3" d="M67.1,189.4a52.58,52.58,0,0,1-7.8-1.2c-3.5-.8-6.2-6.2-8.7-8.8-1.6-1.6-2.5-4-3.6-6-3.4-6.3-3.1-13,1.1-19.2,2-3,6.1-5.8,9.7-6.1,7.1-.7,15.8,2.9,19.5,9.7,2.3,4.1-.9,9.4,2.7,13.1,0,0,3.2,2,.5,4,0,0-2.9,1.4-3.2,3.5a29.75,29.75,0,0,0-.5,4.3c-.2,1.3.1,3.9-.8,5-1.7,2.2-4.9,2.2-7.4,2Z"/><path class="cls-43" d="M63.1,182.7c.2,2.6,1.2,5.9,4.1,6.6a7.08,7.08,0,0,0,1.4.1c2.5.2,5.7.2,7.4-2,.8-1.1.6-3.7.8-5,.1-.9.3-3.2.4-3.8a8.22,8.22,0,0,0-2.7-.2,6.39,6.39,0,0,0-2.8.6c-.8.4-1.8,1-2.6.4a3.33,3.33,0,0,1-1.1-1.9c-.4-1.5-1.2-4.2-1.4-5.7l-1.1.2-1.2,5.2C63.7,179.3,62.9,180.7,63.1,182.7Z"/><path class="cls-42" d="M77.6,276.1l-.1-64.7c.6-3.9-.5-6.3-2.3-7.8s-8-4.9-10-6c0,0-1.6.6-6.2-1.5,0,0-3.3-1.3-4.1-3.3-2.3-.7-7.3-2.8-11.1-3.4-5.3-.9-5.6,4.1-6.2,8,0,0-2.3,35.4-1.3,66.8A53.43,53.43,0,0,0,77.6,276.1Z"/><path class="cls-15" d="M77.5,211.4c.6-3.9-.5-6.3-2.3-7.8-1.1-.8-2.3-1.6-3.5-2.3.8,1.7.5,3.5-.8,5.6-.9,1.4-1.9,2.8-2.7,4.3a17,17,0,0,0-1.4,6.3,110.05,110.05,0,0,0-.1,15.2c.4,7,2.5,13.8,2.4,20.8-.1,6.6-2.4,12.7-8.6,15.9a32.4,32.4,0,0,1-10.6,3.1,54.29,54.29,0,0,0,27.6,3.6Z"/><path class="cls-44" d="M73.9,382.2c-1.6,1.2-4.8,3.6-12,2.1a1.45,1.45,0,0,1-.7-1l-.3-5s0-1.3.7-1c0,0,4.9,2.2,11.6-1.4,0,0,.7-.6.9.5l.1,4.4A1.18,1.18,0,0,1,73.9,382.2Z"/><path class="cls-44" d="M45.5,376.3c-1.6,1.2-5,4.2-10.8,1.4a1.45,1.45,0,0,1-.7-1l.4-4.3s0-1.3.7-1c0,0,3.8,2.9,10.5-.8,0,0,.7-.6.9.5l-.3,3.8A2.35,2.35,0,0,1,45.5,376.3Z"/><path class="cls-3" d="M103.1,208.8s-.4-10.6,3.1-31.2l4.2.3s6.7,24.2,1.7,34.2Z"/><path class="cls-3" d="M86.4,203.9l20.5,1.6s5.4,1.3,5.5,5.7c0,0-.4,4.2-7.2,4.3l-20.3-.1Z"/><path class="cls-3" d="M110.3,177.8a75.79,75.79,0,0,0,1.8-9.5c.9-4.6-2.1-4.8-2.1-4.8-.9-2.4-2.8-.3-2.8-.3a1.71,1.71,0,0,0-1.4,1.3l.1,6.8c-.3,1.1-1.2.2-1.2.2l-2-2.9c-1.1-1.3-1.7.2-1.7.2l4.9,9.1Z"/><path class="cls-42" d="M66.2,204.5s1-7.2,15.2-4.7L97,203.3s4.3,8.8-1.6,14.9l-25.3-1.6S62.6,212.4,66.2,204.5Z"/><path class="cls-45" d="M55.7,189l-5.1,2.5s5.3,7.2,17.1,7.7c.2,0-1.7-6-1.7-6Z"/><path class="cls-43" d="M42.6,161.2s-2.8,10.6,6.9,20.1l6.4,5.9,4.5-1.2.7-9.5c.1-.8-.8-1.9-1.1-2.6a7.51,7.51,0,0,1-.5-2.6c0-1.8.6-3.9,2.9-3.4,1.9.4,2.6,2.7,2.9,4.3l1.1-.2c-.8-5.4,3.2-7.4,3.2-7.4-1-5.8,4.3-5.4,4.3-5.4s6.6-.1,5.8-6.3c0,0,.4-3.6-5.2-6.9-10.9-1.3-15.7-.3-15.7-.3a25.24,25.24,0,0,0-7.1,2.1,14.72,14.72,0,0,0-5.5,4.1,4.43,4.43,0,0,0,.3,4.7C46.7,156.5,43.2,156.6,42.6,161.2Z"/><path class="cls-43" d="M42.6,161.2s-2.8,10.6,6.9,20.1l6.4,5.9,4.5-1.2.7-9.5c.1-.8-.8-1.9-1.1-2.6a7.51,7.51,0,0,1-.5-2.6c0-1.8.6-3.9,2.9-3.4,1.9.4,2.6,2.7,2.9,4.3l1.1-.2c-.8-5.4,3.2-7.4,3.2-7.4-1-5.8,4.3-5.4,4.3-5.4s6.6-.1,5.8-6.3c0,0,.4-3.6-5.2-6.9-10.9-1.3-15.7-.3-15.7-.3a25.24,25.24,0,0,0-7.1,2.1,14.72,14.72,0,0,0-5.5,4.1,4.43,4.43,0,0,0,.3,4.7C46.7,156.5,43.2,156.6,42.6,161.2Z"/><path class="cls-3" d="M64.5,176.3c-1.8.9-4.2-.3-5.4-2.7s-.7-5,1.1-5.9,4.2.3,5.4,2.7S66.3,175.4,64.5,176.3Z"/><path class="cls-46" d="M64.2,173.7c-.6-.1-.5-.4-.6-.9a1.27,1.27,0,0,0-.4-.9.54.54,0,0,0-.8-.2,1.7,1.7,0,0,0-.7.1q-1.05.15-.9-.9c.1-.7,1.1-1.3,2-1.4.4-.1.5-.3,0-.5-1.6-.6-2.8.8-2.9,2.3a1.29,1.29,0,0,0,.8,1.4h.1c.3.5.8.7,1.1,1.2,0,.1.1.1.2.1l.3.6c.4.5,1.1.1,1.6.2a.43.43,0,0,0,.4-.4C64.5,173.9,64.4,173.8,64.2,173.7Z"/><path class="cls-3" d="M411.6,200.4a15.84,15.84,0,0,0,.8-10.3l-3.8-28c-1.5-9.3-8.1-7.3-8.1-7.3-7.1,1.2-3.9,10-3.9,10l7.1,30.5S404,203.4,411.6,200.4Z"/><path class="cls-4" d="M370.8,219.9c-.5-.4-1.9.9-3.5-.6a16.7,16.7,0,0,1,3.1-2.8c.8-.4,1.1-.2,1.9.2a11.76,11.76,0,0,0,1.9,1c.7.2,2.5-.7,3.2-.9l.6.7a40.64,40.64,0,0,1-4.5,4.8Z"/><path class="cls-4" d="M367.4,216.1a28.17,28.17,0,0,1,3.8-2.1l3-.1,1.8-.7c.7,1.9,1.4,3.5,1.4,3.5a22.28,22.28,0,0,0-2.8,1.6s-1.2.6-3.3-1l-1-.6S368.2,217.8,367.4,216.1Z"/><path class="cls-4" d="M374.2,221.7a.54.54,0,0,0,.2-.8c-.1-.1-.1-.2-.2-.2a.65.65,0,0,0-.9-.2l-.1.1.3-.2c.1-.4-.4-.8-.4-.8a.68.68,0,0,0-1,.1l.5-.5c.2-.4-.4-.8-.4-.8-.7-.6-1.1,0-1.1,0l-.2.2s-.8-1.7-2.6-.1l-.8.7s.2,1,1.7,1a1.32,1.32,0,0,0,1.5,1,1.44,1.44,0,0,0,1.3.8s.5,1,1.2.7Z"/><path class="cls-16" d="M398.7,150.9s-5.5,2.6-3.3,10.9c0,0,1,10.2,3,16.8,0,0,9.4.4,13.6-5.7C412,172.9,410.6,153.5,398.7,150.9Z"/><path class="cls-3" d="M411.3,201.1l-34.2,17-2.5-4,29.9-20.4s3.4-2.7,5.5.3A5.92,5.92,0,0,1,411.3,201.1Z"/></g></g></g></g></svg>