<svg xmlns="http://www.w3.org/2000/svg" xmlns:xlink="http://www.w3.org/1999/xlink" viewBox="0 0 1495.5 376.8"><defs><style>.cls-1{isolation:isolate;}.cls-2,.cls-3,.cls-4{stroke-miterlimit:10;stroke-width:23px;}.cls-2{fill:url(#Degradado_sin_nombre_6);stroke:url(#Degradado_sin_nombre_6-2);}.cls-3{fill:url(#Degradado_sin_nombre_6-3);stroke:url(#Degradado_sin_nombre_6-4);}.cls-4{fill:url(#Degradado_sin_nombre_6-5);stroke:url(#Degradado_sin_nombre_6-6);}.cls-5,.cls-6{fill:#b6f2f2;}.cls-6,.cls-8{mix-blend-mode:multiply;}.cls-7,.cls-8{fill:#026687;}.cls-9{fill:#046888;}.cls-10{fill:#066989;}.cls-11{fill:#086b8a;}.cls-12{fill:#0a6c8c;}.cls-13{fill:#0c6e8d;}.cls-14{fill:#0e6f8e;}.cls-15{fill:#10718f;}.cls-16{fill:#117290;}.cls-17{fill:#137491;}.cls-18{fill:#157593;}.cls-19{fill:#177794;}.cls-20{fill:#197895;}.cls-21{fill:#1b7a96;}.cls-22{fill:#1d7b97;}.cls-23{fill:#1f7d98;}.cls-24{fill:#217e99;}.cls-25{fill:#23809b;}.cls-26{fill:#25819c;}.cls-27{fill:#27839d;}.cls-28{fill:#29849e;}.cls-29{fill:#2b869f;}.cls-30{fill:#2d87a0;}.cls-31{fill:#2f89a1;}.cls-32{fill:#308aa3;}.cls-33{fill:#328ca4;}.cls-34{fill:#348da5;}.cls-35{fill:#368fa6;}.cls-36{fill:#3890a7;}.cls-37{fill:#3a92a8;}.cls-38{fill:#3c93aa;}.cls-39{fill:#3e95ab;}.cls-40{fill:#4096ac;}.cls-41{fill:#4298ad;}.cls-42{fill:#4499ae;}.cls-43{fill:#469baf;}.cls-44{fill:#489cb0;}.cls-45{fill:#4a9eb2;}.cls-46{fill:#4c9fb3;}.cls-47{fill:#4da1b4;}.cls-48{fill:#4fa2b5;}.cls-49{fill:#51a4b6;}.cls-50{fill:#53a5b7;}.cls-51{fill:#55a7b8;}.cls-52{fill:#57a8ba;}.cls-53{fill:#59aabb;}.cls-54{fill:#5babbc;}.cls-55{fill:#5dadbd;}.cls-56{fill:#5faebe;}.cls-57{fill:#61b0bf;}.cls-58{fill:#63b1c1;}.cls-59{fill:#65b3c2;}.cls-60{fill:#67b4c3;}.cls-61{fill:#69b6c4;}.cls-62{fill:#6bb7c5;}.cls-63{fill:#6cb9c6;}.cls-64{fill:#6ebac7;}.cls-65{fill:#70bcc9;}.cls-66{fill:#72bdca;}.cls-67{fill:#74bfcb;}.cls-68{fill:#76c0cc;}.cls-69{fill:#78c2cd;}.cls-70{fill:#7ac3ce;}.cls-71{fill:#7cc5cf;}.cls-72{fill:#7ec6d1;}.cls-73{fill:#80c8d2;}.cls-74{fill:#82c9d3;}.cls-75{fill:#84cbd4;}.cls-76{fill:#86ccd5;}.cls-77{fill:#88ced6;}.cls-78{fill:#89cfd8;}.cls-79{fill:#8bd1d9;}.cls-80{fill:#8dd2da;}.cls-81{fill:#8fd4db;}.cls-82{fill:#91d5dc;}.cls-83{fill:#93d7dd;}.cls-84{fill:#95d8de;}.cls-85{fill:#97dae0;}.cls-86{fill:#99dbe1;}.cls-87{fill:#9bdde2;}.cls-88{fill:#9ddee3;}.cls-89{fill:#9fe0e4;}.cls-90{fill:#a1e1e5;}.cls-91{fill:#a3e3e6;}.cls-92{fill:#a5e4e8;}.cls-93{fill:#a7e6e9;}.cls-94{fill:#a8e7ea;}.cls-95{fill:#aae9eb;}.cls-96{fill:#aceaec;}.cls-97{fill:#aeeced;}.cls-98{fill:#b0edef;}.cls-99{fill:#b2eff0;}.cls-100{fill:#b4f0f1;}</style><linearGradient id="Degradado_sin_nombre_6" x1="340.23" y1="245.9" x2="543.91" y2="245.9" gradientUnits="userSpaceOnUse"><stop offset="0" stop-color="#026687"/><stop offset="0.99" stop-color="#002947"/></linearGradient><linearGradient id="Degradado_sin_nombre_6-2" x1="328.73" y1="245.9" x2="555.41" y2="245.9" xlink:href="#Degradado_sin_nombre_6"/><linearGradient id="Degradado_sin_nombre_6-3" x1="590.09" y1="188.71" x2="810.04" y2="188.71" xlink:href="#Degradado_sin_nombre_6"/><linearGradient id="Degradado_sin_nombre_6-4" x1="578.59" y1="188.71" x2="821.54" y2="188.71" xlink:href="#Degradado_sin_nombre_6"/><linearGradient id="Degradado_sin_nombre_6-5" x1="855.2" y1="245.9" x2="1065.61" y2="245.9" xlink:href="#Degradado_sin_nombre_6"/><linearGradient id="Degradado_sin_nombre_6-6" x1="843.7" y1="245.9" x2="1077.11" y2="245.9" xlink:href="#Degradado_sin_nombre_6"/></defs><g class="cls-1"><g id="Capa_1" data-name="Capa 1"><path class="cls-2" d="M543.91,347q0,15.28-15.28,15.29-15.68,0-15.27-21.8-30.15,21.81-71.29,21.8-37.68,0-67.42-19-34.42-22-34.42-57.51t34.42-57.52q29.94-19,67.42-19,41.15,0,71.29,21.59V224.6c0-6-2.11-30.73-6.32-36.84q-18.74-27.69-65-27.7-26.47,0-52.35,15.08-5.3,3-9.16,3.05a14.34,14.34,0,0,1-10.7-4.79,15.56,15.56,0,0,1-4.58-11.1q0-15.06,32-25.05,24.84-7.74,44.81-7.74,37.47,0,67.42,19c22.94,14.68,34.42,52.55,34.42,76.2Zm-30.55-61.19q0-14.51-13.85-26.75a72,72,0,0,0-27.5-14.9,100.78,100.78,0,0,0-29.94-4.28q-47.26,0-65.79,29-5.5,8.58-5.5,16.95t5.5,16.94q18.53,29,65.79,29A100.78,100.78,0,0,0,472,327.45a72,72,0,0,0,27.5-14.9Q513.36,300.29,513.36,285.81Z" transform="translate(418.39 -3.03)"/><path class="cls-3" d="M810,246.71q0,46.89-31.46,80.79-32.12,34.78-78.52,34.79t-78.52-34.78q-31.45-33.88-31.45-80.77V31.65q0-16.51,16.5-16.51t16.49,16.5V164.12q31.89-33,77-33,46.41,0,78.52,34.79Q810,199.81,810,246.71Zm-33,0q0-33.26-21.78-57.49-22.44-25.09-55.21-25.1t-55.2,25.1q-21.78,24.24-21.78,57.49t21.78,57.48q22.42,25.11,55.2,25.11t55.21-25.11Q777.05,280,777.05,246.71Z" transform="translate(418.39 -3.03)"/><path class="cls-4" d="M1065.61,257q0,43.68-30.79,74.49T960.4,362.29q-43.64,0-74.41-30.82T855.2,257V146.14q0-16.62,16.61-16.63t16.61,16.63V257q0,29.7,21.15,50.88t50.83,21.18q29.69,0,50.83-21.18T1032.39,257V146.14q0-16.62,16.61-16.63t16.61,16.63Z" transform="translate(418.39 -3.03)"/><text x="418.39" y="-3.03"/><path class="cls-5" d="M306.26,41.86a37.89,37.89,0,0,0-75.77,0V334.28h0c0,.62,0,1.25,0,1.89a37.89,37.89,0,0,0,75.77,0c0-.64,0-1.27-.05-1.89h.05Z" transform="translate(418.39 -3.03)"/><circle class="cls-6" cx="686.77" cy="38.83" r="37.89"/><path class="cls-7" d="M40.44,4.92A37.89,37.89,0,0,0,2.55,42.81V335.22a37.89,37.89,0,1,0,75.77,0V42.81A37.89,37.89,0,0,0,40.44,4.92Z" transform="translate(418.39 -3.03)"/><circle class="cls-8" cx="458.83" cy="331.8" r="37.89"/><circle class="cls-7" cx="458.83" cy="37.89" r="37.89"/><circle class="cls-9" cx="461.29" cy="41.07" r="37.8"/><circle class="cls-10" cx="463.74" cy="44.26" r="37.72"/><circle class="cls-11" cx="466.19" cy="47.44" r="37.64"/><circle class="cls-12" cx="468.64" cy="50.63" r="37.56"/><circle class="cls-13" cx="471.09" cy="53.81" r="37.48"/><circle class="cls-14" cx="473.54" cy="57" r="37.41"/><circle class="cls-15" cx="475.99" cy="60.18" r="37.33"/><circle class="cls-16" cx="478.44" cy="63.37" r="37.26"/><circle class="cls-17" cx="480.89" cy="66.55" r="37.19"/><circle class="cls-18" cx="483.34" cy="69.74" r="37.12"/><circle class="cls-19" cx="485.79" cy="72.92" r="37.05"/><circle class="cls-20" cx="488.25" cy="76.11" r="36.99"/><circle class="cls-21" cx="490.7" cy="79.29" r="36.92"/><circle class="cls-22" cx="493.15" cy="82.48" r="36.86"/><circle class="cls-23" cx="495.6" cy="85.66" r="36.8"/><circle class="cls-24" cx="498.05" cy="88.85" r="36.74"/><circle class="cls-25" cx="500.5" cy="92.03" r="36.69"/><circle class="cls-26" cx="502.95" cy="95.22" r="36.63"/><circle class="cls-27" cx="505.4" cy="98.4" r="36.58"/><circle class="cls-28" cx="507.85" cy="101.59" r="36.53"/><circle class="cls-29" cx="510.3" cy="104.77" r="36.48"/><circle class="cls-30" cx="512.75" cy="107.95" r="36.43"/><circle class="cls-31" cx="515.2" cy="111.14" r="36.38"/><circle class="cls-32" cx="517.66" cy="114.32" r="36.34"/><circle class="cls-33" cx="520.11" cy="117.51" r="36.3"/><circle class="cls-34" cx="522.56" cy="120.69" r="36.26"/><circle class="cls-35" cx="525.01" cy="123.88" r="36.22"/><circle class="cls-36" cx="527.46" cy="127.06" r="36.18"/><circle class="cls-37" cx="529.91" cy="130.25" r="36.15"/><circle class="cls-38" cx="532.36" cy="133.43" r="36.12"/><circle class="cls-39" cx="534.81" cy="136.62" r="36.09"/><circle class="cls-40" cx="537.26" cy="139.8" r="36.06"/><circle class="cls-41" cx="539.71" cy="142.99" r="36.03"/><circle class="cls-42" cx="542.16" cy="146.17" r="36"/><circle class="cls-43" cx="544.62" cy="149.36" r="35.98"/><circle class="cls-44" cx="547.07" cy="152.54" r="35.96"/><circle class="cls-45" cx="549.52" cy="155.73" r="35.94"/><circle class="cls-46" cx="551.97" cy="158.91" r="35.92"/><circle class="cls-47" cx="554.42" cy="162.1" r="35.91"/><circle class="cls-48" cx="556.87" cy="165.28" r="35.89"/><circle class="cls-49" cx="559.32" cy="168.47" r="35.88"/><circle class="cls-50" cx="561.77" cy="171.65" r="35.87"/><circle class="cls-51" cx="564.22" cy="174.84" r="35.87"/><circle class="cls-52" cx="566.67" cy="178.02" r="35.86"/><circle class="cls-53" cx="569.12" cy="181.21" r="35.86"/><circle class="cls-54" cx="571.58" cy="184.39" r="35.85"/><circle class="cls-55" cx="574.03" cy="187.58" r="35.85"/><circle class="cls-56" cx="576.48" cy="190.76" r="35.86"/><circle class="cls-57" cx="578.93" cy="193.95" r="35.86"/><circle class="cls-58" cx="581.38" cy="197.13" r="35.87"/><circle class="cls-59" cx="583.83" cy="200.32" r="35.87"/><circle class="cls-60" cx="586.28" cy="203.5" r="35.88"/><circle class="cls-61" cx="588.73" cy="206.69" r="35.89"/><circle class="cls-62" cx="591.18" cy="209.87" r="35.91"/><circle class="cls-63" cx="593.63" cy="213.06" r="35.92"/><circle class="cls-64" cx="596.08" cy="216.24" r="35.94"/><circle class="cls-65" cx="598.54" cy="219.43" r="35.96"/><circle class="cls-66" cx="600.99" cy="222.61" r="35.98"/><circle class="cls-67" cx="603.44" cy="225.8" r="36"/><circle class="cls-68" cx="605.89" cy="228.98" r="36.03"/><circle class="cls-69" cx="608.34" cy="232.17" r="36.06"/><circle class="cls-70" cx="610.79" cy="235.35" r="36.09"/><circle class="cls-71" cx="613.24" cy="238.54" r="36.12"/><circle class="cls-72" cx="615.69" cy="241.72" r="36.15"/><circle class="cls-73" cx="618.14" cy="244.91" r="36.18"/><circle class="cls-74" cx="620.59" cy="248.09" r="36.22"/><circle class="cls-75" cx="623.04" cy="251.27" r="36.26"/><circle class="cls-76" cx="625.49" cy="254.46" r="36.3"/><circle class="cls-77" cx="627.95" cy="257.64" r="36.34"/><circle class="cls-78" cx="630.4" cy="260.83" r="36.38"/><circle class="cls-79" cx="632.85" cy="264.01" r="36.43"/><circle class="cls-80" cx="635.3" cy="267.2" r="36.48"/><circle class="cls-81" cx="637.75" cy="270.38" r="36.53"/><circle class="cls-82" cx="640.2" cy="273.57" r="36.58"/><circle class="cls-83" cx="642.65" cy="276.75" r="36.63"/><circle class="cls-84" cx="645.1" cy="279.94" r="36.69"/><circle class="cls-85" cx="647.55" cy="283.12" r="36.74"/><circle class="cls-86" cx="650" cy="286.31" r="36.8"/><circle class="cls-87" cx="652.45" cy="289.49" r="36.86"/><circle class="cls-88" cx="654.91" cy="292.68" r="36.92"/><circle class="cls-89" cx="657.36" cy="295.86" r="36.99"/><circle class="cls-90" cx="659.81" cy="299.05" r="37.05"/><circle class="cls-91" cx="662.26" cy="302.23" r="37.12"/><circle class="cls-92" cx="664.71" cy="305.42" r="37.19"/><circle class="cls-93" cx="667.16" cy="308.6" r="37.26"/><circle class="cls-94" cx="669.61" cy="311.79" r="37.33"/><circle class="cls-95" cx="672.06" cy="314.97" r="37.41"/><circle class="cls-96" cx="674.51" cy="318.16" r="37.48"/><circle class="cls-97" cx="676.96" cy="321.34" r="37.56"/><circle class="cls-98" cx="679.41" cy="324.53" r="37.64"/><circle class="cls-99" cx="681.87" cy="327.71" r="37.72"/><circle class="cls-100" cx="684.32" cy="330.9" r="37.8"/><circle class="cls-5" cx="686.77" cy="334.08" r="37.89"/><text x="418.39" y="-3.03"/></g></g></svg>