<svg xmlns="http://www.w3.org/2000/svg" xmlns:xlink="http://www.w3.org/1999/xlink" viewBox="0 0 1074.56 371.97"><defs><style>.cls-1{isolation:isolate;}.cls-2,.cls-3,.cls-4{stroke-miterlimit:10;stroke-width:23px;}.cls-2{fill:url(#Degradado_sin_nombre_6);stroke:url(#Degradado_sin_nombre_6-2);}.cls-3{fill:url(#Degradado_sin_nombre_6-3);stroke:url(#Degradado_sin_nombre_6-4);}.cls-4{fill:url(#Degradado_sin_nombre_6-5);stroke:url(#Degradado_sin_nombre_6-6);}.cls-5,.cls-6{fill:#b6f2f2;}.cls-6,.cls-8{mix-blend-mode:multiply;}.cls-7,.cls-8{fill:#026687;}.cls-9{fill:#046888;}.cls-10{fill:#066989;}.cls-11{fill:#086b8a;}.cls-12{fill:#0a6c8c;}.cls-13{fill:#0c6e8d;}.cls-14{fill:#0e6f8e;}.cls-15{fill:#10718f;}.cls-16{fill:#117290;}.cls-17{fill:#137491;}.cls-18{fill:#157593;}.cls-19{fill:#177794;}.cls-20{fill:#197895;}.cls-21{fill:#1b7a96;}.cls-22{fill:#1d7b97;}.cls-23{fill:#1f7d98;}.cls-24{fill:#217e99;}.cls-25{fill:#23809b;}.cls-26{fill:#25819c;}.cls-27{fill:#27839d;}.cls-28{fill:#29849e;}.cls-29{fill:#2b869f;}.cls-30{fill:#2d87a0;}.cls-31{fill:#2f89a1;}.cls-32{fill:#308aa3;}.cls-33{fill:#328ca4;}.cls-34{fill:#348da5;}.cls-35{fill:#368fa6;}.cls-36{fill:#3890a7;}.cls-37{fill:#3a92a8;}.cls-38{fill:#3c93aa;}.cls-39{fill:#3e95ab;}.cls-40{fill:#4096ac;}.cls-41{fill:#4298ad;}.cls-42{fill:#4499ae;}.cls-43{fill:#469baf;}.cls-44{fill:#489cb0;}.cls-45{fill:#4a9eb2;}.cls-46{fill:#4c9fb3;}.cls-47{fill:#4da1b4;}.cls-48{fill:#4fa2b5;}.cls-49{fill:#51a4b6;}.cls-50{fill:#53a5b7;}.cls-51{fill:#55a7b8;}.cls-52{fill:#57a8ba;}.cls-53{fill:#59aabb;}.cls-54{fill:#5babbc;}.cls-55{fill:#5dadbd;}.cls-56{fill:#5faebe;}.cls-57{fill:#61b0bf;}.cls-58{fill:#63b1c1;}.cls-59{fill:#65b3c2;}.cls-60{fill:#67b4c3;}.cls-61{fill:#69b6c4;}.cls-62{fill:#6bb7c5;}.cls-63{fill:#6cb9c6;}.cls-64{fill:#6ebac7;}.cls-65{fill:#70bcc9;}.cls-66{fill:#72bdca;}.cls-67{fill:#74bfcb;}.cls-68{fill:#76c0cc;}.cls-69{fill:#78c2cd;}.cls-70{fill:#7ac3ce;}.cls-71{fill:#7cc5cf;}.cls-72{fill:#7ec6d1;}.cls-73{fill:#80c8d2;}.cls-74{fill:#82c9d3;}.cls-75{fill:#84cbd4;}.cls-76{fill:#86ccd5;}.cls-77{fill:#88ced6;}.cls-78{fill:#89cfd8;}.cls-79{fill:#8bd1d9;}.cls-80{fill:#8dd2da;}.cls-81{fill:#8fd4db;}.cls-82{fill:#91d5dc;}.cls-83{fill:#93d7dd;}.cls-84{fill:#95d8de;}.cls-85{fill:#97dae0;}.cls-86{fill:#99dbe1;}.cls-87{fill:#9bdde2;}.cls-88{fill:#9ddee3;}.cls-89{fill:#9fe0e4;}.cls-90{fill:#a1e1e5;}.cls-91{fill:#a3e3e6;}.cls-92{fill:#a5e4e8;}.cls-93{fill:#a7e6e9;}.cls-94{fill:#a8e7ea;}.cls-95{fill:#aae9eb;}.cls-96{fill:#aceaec;}.cls-97{fill:#aeeced;}.cls-98{fill:#b0edef;}.cls-99{fill:#b2eff0;}.cls-100{fill:#b4f0f1;}</style><linearGradient id="Degradado_sin_nombre_6" x1="337.68" y1="242.87" x2="541.36" y2="242.87" gradientUnits="userSpaceOnUse"><stop offset="0" stop-color="#026687"/><stop offset="0.99" stop-color="#002947"/></linearGradient><linearGradient id="Degradado_sin_nombre_6-2" x1="326.18" y1="242.87" x2="552.86" y2="242.87" xlink:href="#Degradado_sin_nombre_6"/><linearGradient id="Degradado_sin_nombre_6-3" x1="587.54" y1="185.68" x2="807.49" y2="185.68" xlink:href="#Degradado_sin_nombre_6"/><linearGradient id="Degradado_sin_nombre_6-4" x1="576.04" y1="185.68" x2="818.99" y2="185.68" xlink:href="#Degradado_sin_nombre_6"/><linearGradient id="Degradado_sin_nombre_6-5" x1="852.65" y1="242.87" x2="1063.06" y2="242.87" xlink:href="#Degradado_sin_nombre_6"/><linearGradient id="Degradado_sin_nombre_6-6" x1="841.15" y1="242.87" x2="1074.56" y2="242.87" xlink:href="#Degradado_sin_nombre_6"/></defs><g class="cls-1"><g id="Capa_2" data-name="Capa 2"><g id="Capa_1-2" data-name="Capa 1"><path class="cls-2" d="M541.36,344q0,15.3-15.28,15.3-15.69,0-15.27-21.8-30.15,21.8-71.29,21.8-37.68,0-67.42-19-34.43-22-34.42-57.52t34.42-57.51q29.94-19,67.42-19,41.13,0,71.29,21.59v-6.31c0-6-2.11-30.73-6.32-36.84q-18.74-27.69-65-27.7Q413,157,387.17,172.1q-5.3,3.06-9.16,3.06a14.38,14.38,0,0,1-10.7-4.79,15.58,15.58,0,0,1-4.58-11.1q0-15.06,32-25.05,24.84-7.74,44.81-7.74,37.47,0,67.42,19c22.94,14.68,34.42,52.55,34.42,76.2Zm-30.55-61.19q0-14.49-13.85-26.74a72,72,0,0,0-27.5-14.9,100.78,100.78,0,0,0-29.94-4.29q-47.26,0-65.79,29-5.5,8.58-5.5,16.94t5.5,17q18.52,29,65.79,29a100.78,100.78,0,0,0,29.94-4.28,72,72,0,0,0,27.5-14.9Q510.81,297.27,510.81,282.77Z"/><path class="cls-3" d="M807.49,243.67q0,46.91-31.46,80.8-32.12,34.78-78.52,34.79T619,324.48q-31.46-33.89-31.45-80.77V28.61q0-16.5,16.5-16.5T620.53,28.6V161.08q31.89-33,77-33,46.41,0,78.52,34.79Q807.49,196.78,807.49,243.67Zm-33,0q0-33.25-21.77-57.48-22.44-25.09-55.21-25.11t-55.2,25.11q-21.78,24.23-21.78,57.48t21.78,57.49q22.43,25.11,55.2,25.1t55.21-25.1Q774.5,276.93,774.49,243.67Z"/><path class="cls-4" d="M1063.06,254q0,43.68-30.79,74.49t-74.42,30.82q-43.64,0-74.41-30.82T852.65,254V143.11q0-16.64,16.61-16.63t16.61,16.63V254q0,29.71,21.15,50.89T957.85,326q29.68,0,50.83-21.17T1029.83,254V143.11q0-16.64,16.62-16.63t16.61,16.63Z"/><path class="cls-5" d="M303.71,38.83a37.89,37.89,0,0,0-75.77,0V331.25h0c0,.62,0,1.25,0,1.89a37.89,37.89,0,0,0,75.77,0c0-.64,0-1.27,0-1.89h0Z"/><circle class="cls-6" cx="265.82" cy="38.83" r="37.89"/><path class="cls-7" d="M37.89,1.89A37.88,37.88,0,0,0,0,39.78V332.19a37.89,37.89,0,1,0,75.77,0V39.78A37.88,37.88,0,0,0,37.89,1.89Z"/><circle class="cls-8" cx="37.89" cy="331.8" r="37.89"/><circle class="cls-7" cx="37.89" cy="37.89" r="37.89"/><circle class="cls-9" cx="40.34" cy="41.07" r="37.8"/><circle class="cls-10" cx="42.79" cy="44.26" r="37.72"/><circle class="cls-11" cx="45.24" cy="47.44" r="37.64"/><circle class="cls-12" cx="47.69" cy="50.63" r="37.56"/><circle class="cls-13" cx="50.15" cy="53.81" r="37.48"/><circle class="cls-14" cx="52.6" cy="57" r="37.41"/><circle class="cls-15" cx="55.05" cy="60.18" r="37.33"/><circle class="cls-16" cx="57.5" cy="63.37" r="37.26"/><circle class="cls-17" cx="59.95" cy="66.55" r="37.19"/><circle class="cls-18" cx="62.4" cy="69.74" r="37.12"/><circle class="cls-19" cx="64.85" cy="72.92" r="37.05"/><circle class="cls-20" cx="67.3" cy="76.11" r="36.99"/><circle class="cls-21" cx="69.75" cy="79.29" r="36.92"/><circle class="cls-22" cx="72.2" cy="82.48" r="36.86"/><circle class="cls-23" cx="74.65" cy="85.66" r="36.8"/><circle class="cls-24" cx="77.11" cy="88.85" r="36.74"/><circle class="cls-25" cx="79.56" cy="92.03" r="36.69"/><circle class="cls-26" cx="82.01" cy="95.22" r="36.63"/><circle class="cls-27" cx="84.46" cy="98.4" r="36.58"/><circle class="cls-28" cx="86.91" cy="101.59" r="36.53"/><circle class="cls-29" cx="89.36" cy="104.77" r="36.48"/><circle class="cls-30" cx="91.81" cy="107.95" r="36.43"/><circle class="cls-31" cx="94.26" cy="111.14" r="36.38"/><circle class="cls-32" cx="96.71" cy="114.32" r="36.34"/><circle class="cls-33" cx="99.16" cy="117.51" r="36.3"/><circle class="cls-34" cx="101.61" cy="120.69" r="36.26"/><circle class="cls-35" cx="104.07" cy="123.88" r="36.22"/><circle class="cls-36" cx="106.52" cy="127.06" r="36.18"/><circle class="cls-37" cx="108.97" cy="130.25" r="36.15"/><circle class="cls-38" cx="111.42" cy="133.43" r="36.12"/><circle class="cls-39" cx="113.87" cy="136.62" r="36.09"/><circle class="cls-40" cx="116.32" cy="139.8" r="36.06"/><circle class="cls-41" cx="118.77" cy="142.99" r="36.03"/><circle class="cls-42" cx="121.22" cy="146.17" r="36"/><circle class="cls-43" cx="123.67" cy="149.36" r="35.98"/><circle class="cls-44" cx="126.12" cy="152.54" r="35.96"/><circle class="cls-45" cx="128.57" cy="155.73" r="35.94"/><circle class="cls-46" cx="131.02" cy="158.91" r="35.92"/><circle class="cls-47" cx="133.48" cy="162.1" r="35.91"/><circle class="cls-48" cx="135.93" cy="165.28" r="35.89"/><circle class="cls-49" cx="138.38" cy="168.47" r="35.88"/><circle class="cls-50" cx="140.83" cy="171.65" r="35.87"/><circle class="cls-51" cx="143.28" cy="174.84" r="35.87"/><circle class="cls-52" cx="145.73" cy="178.02" r="35.86"/><circle class="cls-53" cx="148.18" cy="181.21" r="35.86"/><circle class="cls-54" cx="150.63" cy="184.39" r="35.85"/><circle class="cls-55" cx="153.08" cy="187.58" r="35.85"/><circle class="cls-56" cx="155.53" cy="190.76" r="35.86"/><circle class="cls-57" cx="157.98" cy="193.95" r="35.86"/><circle class="cls-58" cx="160.44" cy="197.13" r="35.87"/><circle class="cls-59" cx="162.89" cy="200.32" r="35.87"/><circle class="cls-60" cx="165.34" cy="203.5" r="35.88"/><circle class="cls-61" cx="167.79" cy="206.69" r="35.89"/><circle class="cls-62" cx="170.24" cy="209.87" r="35.91"/><circle class="cls-63" cx="172.69" cy="213.06" r="35.92"/><circle class="cls-64" cx="175.14" cy="216.24" r="35.94"/><circle class="cls-65" cx="177.59" cy="219.43" r="35.96"/><circle class="cls-66" cx="180.04" cy="222.61" r="35.98"/><circle class="cls-67" cx="182.49" cy="225.8" r="36"/><circle class="cls-68" cx="184.94" cy="228.98" r="36.03"/><circle class="cls-69" cx="187.4" cy="232.17" r="36.06"/><circle class="cls-70" cx="189.85" cy="235.35" r="36.09"/><circle class="cls-71" cx="192.3" cy="238.54" r="36.12"/><circle class="cls-72" cx="194.75" cy="241.72" r="36.15"/><circle class="cls-73" cx="197.2" cy="244.91" r="36.18"/><circle class="cls-74" cx="199.65" cy="248.09" r="36.22"/><circle class="cls-75" cx="202.1" cy="251.27" r="36.26"/><circle class="cls-76" cx="204.55" cy="254.46" r="36.3"/><circle class="cls-77" cx="207" cy="257.64" r="36.34"/><circle class="cls-78" cx="209.45" cy="260.83" r="36.38"/><circle class="cls-79" cx="211.9" cy="264.01" r="36.43"/><circle class="cls-80" cx="214.36" cy="267.2" r="36.48"/><circle class="cls-81" cx="216.81" cy="270.38" r="36.53"/><circle class="cls-82" cx="219.26" cy="273.57" r="36.58"/><circle class="cls-83" cx="221.71" cy="276.75" r="36.63"/><circle class="cls-84" cx="224.16" cy="279.94" r="36.69"/><circle class="cls-85" cx="226.61" cy="283.12" r="36.74"/><circle class="cls-86" cx="229.06" cy="286.31" r="36.8"/><circle class="cls-87" cx="231.51" cy="289.49" r="36.86"/><circle class="cls-88" cx="233.96" cy="292.68" r="36.92"/><circle class="cls-89" cx="236.41" cy="295.86" r="36.99"/><circle class="cls-90" cx="238.86" cy="299.05" r="37.05"/><circle class="cls-91" cx="241.32" cy="302.23" r="37.12"/><circle class="cls-92" cx="243.77" cy="305.42" r="37.19"/><circle class="cls-93" cx="246.22" cy="308.6" r="37.26"/><circle class="cls-94" cx="248.67" cy="311.79" r="37.33"/><circle class="cls-95" cx="251.12" cy="314.97" r="37.41"/><circle class="cls-96" cx="253.57" cy="318.16" r="37.48"/><circle class="cls-97" cx="256.02" cy="321.34" r="37.56"/><circle class="cls-98" cx="258.47" cy="324.53" r="37.64"/><circle class="cls-99" cx="260.92" cy="327.71" r="37.72"/><circle class="cls-100" cx="263.37" cy="330.9" r="37.8"/><circle class="cls-5" cx="265.82" cy="334.08" r="37.89"/></g></g></g></svg>